<?xml version="1.0" standalone="no"?>
<!DOCTYPE svg PUBLIC "-//W3C//DTD SVG 20010904//EN"
 "http://www.w3.org/TR/2001/REC-SVG-20010904/DTD/svg10.dtd">
<svg version="1.0" xmlns="http://www.w3.org/2000/svg"
 width="1000.000000pt" height="1000.000000pt" viewBox="0 0 1000.000000 1000.000000"
 preserveAspectRatio="xMidYMid meet">
<metadata>
Created by potrace 1.14, written by Peter Selinger 2001-2017
</metadata>
<g transform="translate(0.000000,1000.000000) scale(0.100000,-0.100000)"
fill="#000000" stroke="none">
<path d="M3867 8815 c3 -28 2 -28 -8 -8 -8 16 -20 21 -43 21 -17 -1 -25 -3
-18 -5 6 -3 12 -12 11 -21 0 -11 -2 -12 -6 -4 -2 6 -9 12 -14 12 -6 0 -7 -4
-4 -10 3 -5 1 -10 -4 -10 -10 0 -15 14 -12 33 0 4 -4 7 -10 7 -6 0 -8 -9 -4
-20 7 -21 4 -22 -50 -22 -24 0 -35 -7 -49 -31 -13 -24 -19 -28 -26 -17 -7 11
-12 11 -23 2 -7 -7 -17 -8 -22 -4 -4 4 -3 -3 4 -15 12 -24 6 -32 -21 -28 -15
3 -16 0 -6 -18 10 -21 10 -21 -8 -6 -13 11 -25 14 -39 9 -17 -7 -17 -9 -2 -9
9 -1 17 -6 17 -12 0 -5 5 -7 12 -3 6 4 8 3 4 -4 -3 -6 -15 -9 -26 -7 -10 2
-24 -3 -31 -11 -10 -12 -9 -13 7 -7 16 6 17 4 7 -9 -7 -8 -10 -17 -7 -21 3 -3
-2 -4 -13 -3 -27 5 -36 -4 -22 -20 10 -12 10 -15 -1 -12 -8 2 -14 -4 -15 -12
0 -8 -6 -16 -12 -16 -7 -1 -18 -2 -25 -3 -6 0 -3 -10 8 -23 10 -12 14 -18 7
-15 -16 10 -43 -2 -43 -20 0 -8 -4 -12 -9 -8 -5 3 -13 0 -17 -6 -4 -8 -3 -9 4
-5 7 4 12 3 12 -2 0 -6 -7 -13 -16 -16 -14 -5 -14 -9 -3 -23 8 -9 9 -14 2 -10
-6 4 -14 1 -16 -5 -4 -10 -6 -9 -6 1 -1 11 -4 11 -16 1 -11 -9 -12 -16 -5 -25
8 -9 8 -15 0 -20 -6 -3 -7 -12 -3 -18 4 -7 -1 -6 -10 2 -10 8 -18 12 -20 10
-22 -39 -27 -50 -18 -44 6 3 11 2 11 -4 0 -5 -5 -13 -10 -16 -6 -4 -7 -11 -4
-17 4 -7 2 -8 -5 -4 -6 4 -9 12 -6 17 4 5 1 9 -6 9 -6 0 -9 -8 -6 -20 3 -10 2
-19 -2 -18 -21 2 -41 -3 -41 -13 0 -5 4 -8 9 -4 5 3 12 1 16 -5 3 -5 1 -10 -5
-10 -6 0 -9 -4 -5 -9 3 -5 0 -13 -6 -17 -7 -4 -9 -3 -6 3 4 6 -2 13 -13 16
-11 3 -18 1 -15 -3 3 -5 1 -12 -5 -15 -8 -5 -8 -11 0 -20 8 -10 8 -15 -1 -21
-7 -4 -15 -2 -17 5 -3 8 -8 6 -17 -6 -8 -11 -10 -24 -4 -34 12 -23 0 -30 -25
-17 -19 10 -20 10 -7 -5 10 -13 11 -20 2 -30 -6 -8 -7 -18 -3 -22 4 -5 1 -5
-5 -1 -8 4 -23 -3 -37 -17 -14 -14 -27 -23 -30 -20 -2 3 -2 -10 1 -29 4 -26 2
-30 -7 -21 -7 6 -19 9 -27 6 -12 -5 -10 -9 8 -19 l24 -13 -23 -1 c-18 0 -21
-3 -14 -17 13 -25 4 -47 -13 -33 -19 16 -50 -41 -32 -59 8 -8 7 -11 -5 -11 -9
0 -20 -4 -23 -10 -4 -6 1 -7 12 -3 16 6 17 5 3 -12 -8 -10 -14 -20 -12 -22 5
-7 -10 -4 -16 3 -4 4 0 3 8 -1 13 -8 13 -7 1 8 -7 9 -15 17 -17 17 -4 0 4 -38
11 -50 4 -6 -1 -7 -12 -3 -15 6 -16 4 -6 -8 9 -11 9 -19 2 -26 -7 -7 -8 -13 0
-17 5 -4 7 -14 4 -22 -5 -13 -8 -13 -15 -2 -7 9 -8 7 -3 -7 13 -34 13 -104 1
-114 -9 -7 -12 -3 -12 14 0 13 3 22 7 19 4 -2 7 5 6 16 -1 11 -5 20 -10 20 -4
0 -6 4 -3 8 3 5 -1 9 -8 9 -11 0 -12 -4 -3 -19 10 -15 9 -21 -3 -28 -12 -8
-12 -10 -1 -10 10 0 11 -3 2 -14 -8 -10 -9 -16 -1 -21 6 -3 7 -12 3 -18 -4 -7
-8 -18 -9 -25 -3 -18 27 -52 39 -45 6 3 7 1 3 -5 -5 -9 -14 -7 -32 4 -27 18
-32 13 -8 -10 8 -9 11 -16 5 -16 -6 0 -11 -7 -11 -15 0 -8 6 -15 13 -15 8 0 7
-4 -3 -10 -12 -8 -13 -11 -1 -19 11 -7 11 -9 0 -13 -12 -4 -11 -8 1 -23 12
-15 12 -17 1 -10 -11 6 -13 2 -9 -19 3 -14 1 -26 -5 -26 -5 0 -4 -6 2 -14 7
-9 8 -17 2 -20 -5 -3 -11 0 -14 6 -3 7 -4 3 -4 -9 1 -12 4 -20 8 -17 4 2 11
-1 15 -7 4 -8 3 -9 -4 -5 -7 4 -12 2 -12 -4 0 -6 -5 -8 -12 -4 -7 5 -8 3 -4
-5 5 -7 14 -10 22 -7 8 3 11 0 8 -8 -3 -8 -14 -12 -27 -9 -16 3 -18 2 -9 -5 8
-5 14 -13 14 -17 0 -4 -6 -12 -14 -17 -10 -8 -10 -9 2 -5 8 2 14 10 12 16 -1
6 2 11 7 11 5 0 8 -17 6 -37 -2 -31 -6 -38 -23 -36 -17 2 -19 -3 -17 -40 2
-24 -2 -45 -8 -49 -9 -6 -9 -8 1 -8 6 0 12 -7 12 -15 0 -8 -4 -15 -8 -15 -5 0
-7 -15 -6 -32 1 -18 3 -33 4 -33 1 0 3 -8 5 -18 3 -15 1 -16 -11 -6 -7 6 -11
16 -7 23 4 6 -2 4 -13 -4 -10 -8 -20 -15 -22 -16 -1 -1 4 -7 13 -14 13 -11 15
-10 9 6 -5 16 -4 16 5 4 17 -23 13 -33 -10 -27 -16 4 -18 3 -9 -8 7 -9 8 -15
1 -19 -7 -5 -7 -15 0 -32 8 -22 7 -25 -6 -20 -11 4 -14 2 -8 -7 13 -20 9 -71
-7 -85 -8 -8 -10 -11 -3 -8 6 4 14 2 17 -3 4 -5 -2 -8 -11 -6 -10 1 -17 10
-17 19 1 8 -2 14 -6 11 -4 -2 -7 -29 -6 -60 1 -46 -1 -55 -14 -50 -9 3 -8 0 4
-10 17 -13 18 -15 2 -21 -15 -6 -15 -7 1 -20 10 -7 13 -14 7 -14 -6 0 -10 -11
-9 -25 2 -14 -1 -25 -7 -25 -6 0 -8 7 -5 15 4 8 2 17 -2 19 -15 9 -21 -6 -10
-25 7 -15 6 -21 -5 -25 -8 -3 -13 -13 -11 -22 1 -9 -3 -21 -9 -25 -7 -6 -4 -7
7 -3 21 7 22 -1 2 -20 -10 -11 -12 -21 -5 -39 9 -23 6 -29 -12 -26 -4 0 -5 -6
-2 -14 4 -8 11 -12 18 -9 6 3 3 -1 -6 -9 -10 -8 -18 -22 -18 -31 0 -9 -8 -16
-17 -17 -14 0 -13 -2 5 -9 28 -12 29 -20 1 -15 -17 3 -19 1 -9 -10 8 -10 8
-15 -1 -21 -8 -5 -9 -3 -4 6 5 9 4 11 -4 6 -6 -4 -8 -12 -5 -18 10 -16 11 -69
1 -75 -4 -3 -2 -11 4 -19 10 -12 10 -15 -2 -12 -10 2 -13 -5 -12 -22 2 -22 1
-23 -8 -7 -8 13 -7 23 2 35 12 16 12 16 -6 0 -13 -12 -18 -29 -17 -58 1 -28
-2 -39 -9 -34 -8 4 -8 1 0 -13 7 -14 7 -23 -1 -31 -9 -9 -9 -12 0 -12 7 0 12
-5 12 -10 0 -7 -6 -7 -20 0 -23 12 -26 5 -6 -15 7 -8 17 -11 20 -7 4 3 4 -2 0
-12 -6 -16 -8 -16 -16 -3 -5 9 -15 14 -23 11 -8 -4 -12 -11 -9 -16 4 -6 10 -5
15 3 5 8 9 9 9 3 0 -6 -7 -17 -15 -24 -11 -9 -12 -16 -5 -25 7 -8 7 -15 1 -19
-10 -7 -9 -25 3 -44 7 -12 4 -12 -14 -2 -13 7 -20 8 -16 2 4 -6 -2 -15 -11
-21 -10 -6 -13 -11 -8 -11 6 0 16 5 22 11 7 7 12 6 16 -3 3 -9 -3 -14 -16 -15
-27 -3 -42 -19 -26 -28 8 -6 10 -4 4 5 -6 9 -4 11 5 5 10 -6 10 -10 -3 -20
-13 -9 -14 -14 -4 -25 10 -10 8 -12 -7 -6 -14 5 -16 3 -9 -6 14 -18 12 -46 -3
-52 -8 -3 -11 -12 -7 -23 6 -15 5 -16 -9 -3 -9 8 -13 19 -10 24 3 5 0 6 -6 2
-9 -5 -7 -14 5 -32 9 -14 11 -24 5 -22 -8 3 -14 -5 -11 -14 7 -23 3 -48 -8
-48 -8 0 -11 5 -8 10 3 6 1 10 -4 10 -6 0 -11 -6 -11 -14 0 -8 -6 -17 -12 -20
-7 -3 -3 -3 9 -1 12 3 25 0 29 -6 4 -8 3 -9 -5 -5 -14 9 -43 -12 -35 -25 3 -5
0 -9 -5 -9 -6 0 -11 -5 -11 -11 0 -5 6 -7 13 -3 7 5 6 0 -3 -11 -9 -11 -10
-16 -2 -11 8 5 11 1 9 -13 -2 -11 -6 -23 -10 -26 -4 -3 -5 -2 -2 1 4 7 -19 34
-30 34 -3 0 -3 -6 2 -12 14 -23 12 -40 -4 -34 -9 4 -13 1 -10 -6 2 -7 10 -12
16 -10 7 1 10 -2 6 -8 -3 -5 -14 -10 -23 -10 -10 0 -13 -3 -7 -8 10 -6 11 -15
6 -39 -1 -5 -6 -1 -11 7 -7 10 -10 11 -10 2 0 -7 7 -15 16 -19 12 -4 9 -9 -14
-23 -28 -17 -35 -41 -19 -67 4 -6 2 -15 -4 -19 -8 -5 -9 -3 -4 7 6 11 5 12 -5
2 -10 -10 -11 -15 -1 -27 8 -10 9 -16 1 -21 -6 -4 -10 -3 -9 2 1 4 -3 19 -9
33 -11 23 -12 23 -6 -9 4 -22 3 -31 -4 -27 -15 9 -23 -7 -12 -24 5 -8 2 -19
-9 -29 -9 -9 -12 -13 -5 -8 7 4 14 1 17 -7 4 -9 2 -18 -4 -21 -5 -4 -8 -9 -5
-13 2 -4 0 -16 -5 -27 -6 -15 -8 -16 -8 -4 -1 9 -8 20 -17 23 -8 3 -12 2 -9
-3 3 -5 1 -13 -5 -16 -8 -5 -7 -11 1 -22 10 -12 10 -16 -2 -24 -8 -5 -9 -9 -4
-9 6 0 10 -10 10 -22 -1 -13 -6 -23 -11 -23 -5 0 -8 9 -7 20 2 12 -5 6 -16
-15 -11 -22 -17 -55 -17 -87 1 -41 -2 -49 -12 -40 -10 8 -12 7 -10 -4 2 -8 8
-17 13 -21 6 -4 0 -8 -12 -8 -12 0 -24 -4 -28 -9 -3 -6 7 -8 22 -6 l28 4 -25
-12 c-24 -12 -33 -38 -17 -53 4 -4 2 -13 -4 -21 -6 -7 -8 -13 -4 -13 4 0 2 -7
-5 -15 -9 -10 -9 -19 -2 -28 7 -8 5 -19 -9 -36 -16 -20 -19 -21 -16 -5 1 11 6
24 9 29 4 6 2 17 -4 25 -8 13 -9 12 -5 -1 3 -9 1 -21 -5 -27 -14 -14 -17 -62
-4 -62 8 0 8 -2 0 -8 -6 -4 -10 -19 -9 -34 1 -15 -2 -25 -7 -22 -4 3 -8 -2 -8
-11 0 -9 -4 -14 -10 -10 -5 3 -7 13 -4 23 5 14 4 14 -4 2 -15 -21 5 -45 24
-29 8 6 14 8 14 4 0 -4 -8 -14 -17 -21 -17 -13 -17 -13 1 -14 11 0 17 -3 13
-6 -10 -10 -48 7 -41 18 4 7 2 8 -5 4 -9 -6 -9 -11 0 -22 6 -8 8 -14 4 -14 -5
0 0 -10 11 -22 13 -16 14 -19 2 -10 -11 9 -18 10 -23 2 -3 -5 -1 -10 6 -10 7
0 5 -6 -6 -14 -18 -13 -18 -13 1 -24 10 -6 15 -12 9 -12 -12 0 -13 -59 -2 -78
5 -7 2 -14 -7 -18 -9 -3 -14 -9 -11 -14 2 -4 -7 -6 -20 -4 -14 1 -23 -2 -19
-7 3 -5 10 -6 16 -3 7 4 7 0 0 -12 -5 -11 -7 -25 -4 -33 3 -10 0 -11 -9 -5
-12 6 -12 5 -1 -8 9 -11 10 -18 2 -23 -6 -3 -7 -11 -4 -17 10 -16 11 -68 1
-68 -5 0 -6 -4 -3 -9 3 -5 -1 -12 -9 -15 -14 -5 -14 -9 0 -36 8 -16 12 -30 8
-30 -5 0 -1 -5 7 -11 12 -8 10 -9 -7 -4 -19 5 -22 3 -16 -11 5 -13 3 -15 -7
-9 -9 5 -11 4 -6 -4 4 -6 1 -23 -8 -36 -10 -15 -12 -26 -6 -30 6 -4 7 -11 4
-17 -4 -7 -2 -8 4 -4 7 4 12 2 12 -3 0 -6 -5 -11 -11 -11 -6 0 -3 -7 5 -16 9
-8 16 -20 16 -27 0 -6 -6 -3 -13 7 -13 18 -14 18 -14 0 0 -11 5 -22 11 -26 7
-5 6 -8 -4 -8 -13 0 -13 -1 0 -10 13 -8 12 -10 -4 -10 -19 0 -19 0 -1 -13 14
-11 15 -16 5 -22 -9 -6 -11 -4 -5 5 5 8 4 11 -3 6 -12 -7 -5 -36 9 -36 5 0 9
-5 9 -11 0 -5 -5 -7 -11 -3 -6 3 -10 -1 -9 -12 6 -50 0 -85 -12 -78 -10 6 -10
5 -2 -7 17 -20 23 -111 8 -105 -13 5 -13 -19 1 -31 4 -4 5 -2 0 6 -6 10 -4 12
4 7 9 -6 8 -13 -6 -28 -9 -11 -13 -19 -8 -18 21 5 25 -1 15 -21 -7 -12 -18
-18 -26 -15 -9 3 -12 1 -9 -5 4 -5 16 -7 28 -4 15 4 18 3 9 -3 -19 -13 -19
-17 -4 -35 11 -12 11 -17 0 -23 -7 -5 -16 -9 -20 -9 -3 0 -10 -3 -13 -7 -4 -4
5 -5 21 -2 16 2 25 1 19 -3 -15 -12 -18 -43 -5 -58 8 -10 8 -15 -1 -21 -8 -4
-9 -3 -5 4 4 7 2 12 -3 12 -6 0 -11 -9 -11 -20 0 -11 -5 -20 -12 -20 -6 0 -8
-3 -5 -6 4 -4 13 -2 21 5 11 10 14 7 12 -13 -1 -20 -4 -22 -15 -13 -10 9 -10
3 3 -20 9 -18 14 -33 10 -33 -4 0 -1 -6 5 -14 7 -8 8 -17 3 -20 -11 -6 -10
-46 2 -64 4 -8 3 -11 -5 -10 -6 2 -14 -3 -17 -11 -2 -8 0 -11 5 -8 5 3 10 0
10 -8 0 -11 -4 -11 -23 2 -22 14 -23 14 -18 -9 7 -27 7 -39 4 -53 -5 -20 0
-36 10 -30 5 3 10 1 10 -5 0 -6 5 -8 12 -4 7 4 8 3 4 -4 -4 -6 -14 -8 -23 -5
-13 5 -15 1 -11 -20 4 -20 1 -27 -11 -28 -12 0 -11 -2 4 -9 11 -5 15 -9 10 -9
-6 -1 -11 -10 -11 -21 0 -14 5 -19 16 -15 13 4 13 4 0 -7 -9 -8 -14 -27 -13
-46 1 -17 -2 -30 -6 -27 -4 2 -8 -2 -8 -10 0 -8 5 -11 11 -8 6 4 4 -2 -4 -12
-8 -10 -10 -16 -4 -12 7 4 10 -6 10 -27 -1 -19 -4 -32 -8 -29 -5 2 -8 -10 -8
-27 0 -17 4 -29 8 -26 5 3 9 -1 9 -9 0 -10 -5 -11 -19 -4 -10 6 -15 15 -12 21
4 7 3 8 -4 4 -6 -4 -9 -13 -6 -20 3 -8 1 -17 -5 -21 -16 -9 -13 -26 3 -23 8 2
15 -1 14 -6 0 -5 6 -13 14 -17 11 -7 11 -9 -1 -9 -11 0 -11 -3 0 -17 8 -9 9
-14 4 -11 -6 4 -19 0 -30 -8 -13 -10 -15 -14 -4 -14 12 0 12 -2 -1 -10 -13 -8
-12 -10 4 -10 19 0 19 0 1 -13 -12 -10 -15 -16 -6 -21 8 -5 8 -13 1 -27 -6
-10 -8 -19 -6 -19 3 0 1 -11 -4 -24 -5 -15 -5 -27 3 -35 8 -8 7 -11 -6 -11 -9
0 -17 -4 -17 -10 0 -5 6 -8 13 -6 6 1 9 1 5 -1 -5 -3 -8 -9 -8 -14 0 -6 4 -8
9 -5 5 4 8 -2 6 -11 -2 -10 -4 -21 -4 -25 -1 -3 -9 -8 -18 -10 -13 -2 -18 -13
-19 -36 0 -31 15 -40 24 -12 3 7 0 10 -5 7 -5 -3 -10 4 -10 15 -2 21 -2 21 13
-1 12 -16 13 -25 4 -35 -6 -8 -7 -16 -1 -18 5 -1 2 -10 -7 -18 -14 -13 -15
-12 -9 3 3 9 2 17 -2 17 -5 0 -11 -6 -14 -14 -6 -15 18 -30 33 -21 5 3 11 1
14 -4 4 -5 -5 -8 -19 -6 -16 1 -25 -3 -25 -12 0 -8 5 -11 12 -7 7 5 8 3 2 -7
-9 -16 -14 -98 -5 -97 30 3 36 -4 35 -42 0 -27 3 -40 12 -40 8 0 13 -9 11 -22
-1 -14 4 -23 13 -23 8 0 16 -6 16 -12 1 -7 2 -18 3 -24 0 -5 5 -7 11 -4 5 3
10 1 10 -5 0 -6 4 -8 10 -5 5 3 10 -1 10 -11 0 -13 3 -14 15 -4 11 9 15 9 15
1 0 -7 5 -9 12 -5 7 4 8 3 4 -5 -4 -6 -11 -9 -16 -6 -5 3 -12 0 -16 -7 -4 -7
-4 -10 1 -6 4 4 19 1 34 -6 14 -7 40 -12 58 -11 17 1 32 -1 31 -4 -3 -35 4
-41 45 -41 31 0 38 -3 27 -10 -9 -6 -10 -10 -3 -10 6 0 15 5 18 10 8 13 35 13
35 0 0 -5 -6 -8 -12 -6 -7 1 -10 1 -5 -1 4 -3 5 -8 3 -12 -3 -4 1 -8 9 -8 8 0
12 4 9 9 -3 4 4 8 16 8 14 0 19 4 14 13 -4 6 -3 8 1 4 15 -13 14 -36 -1 -30
-8 3 -14 1 -14 -4 0 -6 22 -9 50 -8 27 1 50 -2 50 -7 0 -5 5 -6 10 -3 8 5 8
11 0 20 -8 9 -8 15 0 20 6 4 9 3 8 -2 -2 -5 4 -15 12 -24 10 -12 24 -14 52 -9
22 4 42 10 45 14 4 3 17 -1 31 -10 13 -9 22 -12 18 -6 -10 16 21 22 35 6 8
-10 15 -11 24 -4 9 8 15 8 20 0 3 -6 12 -7 18 -3 7 5 30 8 52 8 37 1 40 3 39
28 -1 20 2 25 11 17 6 -5 15 -7 18 -3 4 3 7 1 7 -6 0 -8 -6 -11 -16 -7 -8 3
-13 2 -10 -3 10 -15 66 -5 81 15 13 18 14 18 24 -6 7 -19 10 -20 10 -7 1 10 5
16 11 12 5 -3 7 -13 4 -23 -5 -15 -5 -15 6 1 6 9 8 22 4 28 -4 8 -1 8 13 1 11
-6 25 -7 33 -2 17 10 42 1 34 -12 -4 -6 6 -2 22 8 28 18 29 18 14 0 -14 -18
-14 -19 7 -8 28 15 36 15 27 0 -6 -10 -5 -10 7 -1 8 7 28 10 43 7 15 -2 25 -1
22 4 -6 9 47 7 63 -3 6 -3 11 -1 11 5 0 7 7 5 16 -4 18 -19 31 -21 16 -3 -8
10 -2 12 29 9 25 -3 37 -8 33 -16 -3 -6 1 -3 9 7 9 10 18 14 21 9 3 -6 15 -8
26 -5 12 3 20 0 20 -7 0 -7 5 -6 15 4 17 17 48 11 39 -8 -3 -6 2 -2 10 8 15
19 22 12 17 -17 -1 -5 3 -6 9 -2 6 3 8 11 5 16 -4 5 1 9 10 9 9 0 14 -3 12 -7
-3 -5 6 -9 19 -9 23 -2 24 -1 7 13 -17 13 -17 13 3 4 11 -5 26 -6 34 -1 8 5
21 5 29 1 9 -3 28 -6 44 -5 26 1 31 -5 28 -36 -2 -13 -1 -13 8 0 6 8 11 11 11
6 0 -6 5 -5 11 1 11 11 52 6 44 -6 -2 -4 12 -6 31 -5 23 2 32 0 28 -8 -4 -7
-3 -8 5 -4 6 4 9 11 6 16 -3 5 -1 12 5 15 6 4 9 1 8 -7 -2 -7 3 -12 10 -10 6
1 12 -2 12 -8 0 -5 7 -7 16 -3 13 5 13 7 2 14 -10 7 -10 9 0 9 7 0 15 -7 18
-15 4 -8 10 -12 15 -9 19 11 49 12 49 2 0 -6 3 -8 7 -5 3 4 12 2 20 -5 11 -8
12 -7 7 5 -5 13 0 15 22 11 15 -3 31 -7 36 -10 4 -3 8 0 8 7 0 9 3 9 14 0 7
-6 21 -9 30 -5 9 3 16 1 16 -6 0 -6 -4 -8 -10 -5 -5 3 -10 1 -10 -5 0 -7 6
-10 14 -7 9 4 17 -1 20 -11 2 -9 3 -2 1 16 -3 27 -1 31 10 22 8 -7 18 -9 23
-7 4 3 14 1 22 -5 13 -8 12 -9 -2 -5 -21 7 -45 -18 -27 -29 7 -4 9 -3 6 3 -4
7 9 12 34 15 30 3 43 0 47 -11 4 -11 7 -11 13 5 7 17 8 17 8 2 1 -21 37 -25
44 -5 4 10 6 10 6 0 1 -7 6 -13 12 -13 5 0 7 6 3 13 -6 9 -4 9 7 0 16 -15 33
-17 24 -3 -3 5 -1 10 4 10 6 0 11 -4 11 -10 0 -5 10 -9 23 -9 12 1 30 -2 40
-6 10 -4 17 -3 17 5 0 6 5 8 10 5 6 -4 8 -10 6 -14 -3 -3 4 -7 14 -7 12 0 16
6 12 16 -4 12 -2 13 9 2 16 -15 33 -16 23 0 -5 7 -3 8 5 4 7 -5 10 -14 7 -22
-3 -7 0 -16 6 -20 7 -5 8 -3 4 5 -5 8 -2 11 9 9 10 -2 19 3 21 10 1 7 0 8 -3
2 -5 -11 -23 -4 -23 10 0 4 8 7 18 5 9 -2 17 -4 17 -5 0 -1 15 -3 32 -5 20 -2
30 1 27 7 -4 6 2 6 13 -1 11 -6 23 -7 27 -4 3 3 6 2 6 -4 0 -6 -16 -10 -37 -9
-25 1 -38 -4 -40 -14 -4 -13 -3 -13 6 0 6 8 11 10 11 4 0 -6 7 -11 15 -11 8 0
12 4 9 9 -3 4 0 8 5 8 6 0 11 -6 11 -14 0 -20 17 -29 26 -15 4 8 3 9 -4 5 -7
-4 -12 -3 -12 2 0 16 13 22 27 11 7 -6 13 -8 13 -3 0 5 5 2 11 -6 9 -13 10
-13 6 0 -2 8 -10 15 -17 15 -7 0 -14 6 -16 13 -1 7 0 8 3 2 3 -7 10 -7 21 2 9
8 13 8 9 2 -4 -7 0 -15 9 -18 8 -3 12 -10 9 -16 -3 -5 -2 -10 3 -10 18 0 21
29 4 39 -13 7 -11 9 10 8 23 -2 25 -5 16 -27 -8 -24 -7 -23 15 5 24 29 24 29
32 6 4 -13 12 -20 20 -18 7 3 18 0 25 -6 10 -9 12 -8 7 6 -8 22 0 22 21 -1 10
-10 16 -16 15 -14 -3 6 24 32 32 32 3 0 4 -4 1 -9 -3 -5 0 -11 7 -13 17 -7 38
2 31 13 -3 5 0 9 5 9 10 0 15 -14 12 -33 -1 -5 3 -6 9 -2 6 3 8 12 5 18 -3 7
0 4 7 -5 11 -16 14 -15 31 10 11 15 17 19 14 10 -8 -23 15 -29 48 -12 22 11
31 12 39 3 8 -9 8 -10 0 -6 -7 4 -18 -1 -25 -11 -12 -15 -12 -15 1 -5 8 6 20
12 25 13 6 1 9 8 8 16 -1 12 4 11 18 -5 19 -20 49 -19 49 1 0 6 -7 4 -17 -3
-15 -13 -15 -12 -2 9 14 22 14 22 23 2 5 -11 16 -20 25 -20 14 0 14 2 1 10
-12 8 -10 10 8 10 13 0 20 -4 17 -10 -3 -5 1 -10 10 -10 9 0 14 4 11 8 -2 4 4
14 16 21 11 7 17 8 13 2 -7 -12 8 -15 19 -4 8 9 46 15 46 7 0 -3 -5 -15 -12
-27 -9 -19 -9 -20 3 -10 17 14 28 14 54 0 18 -9 19 -9 6 7 -8 9 -20 15 -28 12
-7 -3 -13 -1 -13 4 0 6 5 10 11 10 5 0 7 6 3 13 -4 6 3 2 15 -11 12 -12 27
-19 33 -16 8 5 9 1 4 -11 -5 -14 -4 -16 7 -7 10 9 17 8 27 -1 12 -10 12 -9 1
6 -15 20 -2 23 19 5 12 -11 12 -10 1 4 -8 11 -23 16 -42 13 -16 -2 -31 0 -33
4 -3 4 35 7 85 7 68 -1 92 -5 99 -16 14 -21 12 -3 -2 23 -10 20 -10 21 6 7 23
-18 46 -22 46 -7 0 7 5 5 10 -3 6 -10 10 -11 10 -3 0 9 7 10 25 3 14 -5 25 -6
25 -1 0 5 9 7 21 4 12 -4 25 0 30 8 7 11 9 10 9 -5 0 -20 0 -20 16 0 8 10 13
13 9 7 -10 -20 13 -15 25 5 11 16 11 16 6 0 -6 -20 10 -25 17 -5 4 9 6 9 6 0
1 -7 8 -10 17 -6 9 3 20 0 25 -8 7 -11 9 -11 9 -1 0 7 5 10 10 7 6 -4 17 -1
25 5 12 10 18 10 30 0 13 -11 14 -10 9 4 -3 9 -10 16 -16 16 -5 0 -6 5 -2 11
5 8 10 7 16 -4 5 -9 15 -14 23 -10 11 4 13 1 8 -13 -6 -16 -5 -17 9 -4 14 13
14 16 -1 26 -9 7 -20 10 -25 7 -5 -4 -6 -1 -2 6 6 9 11 9 22 0 7 -6 21 -9 29
-5 9 3 14 2 11 -2 -2 -4 7 -8 20 -8 23 -2 24 -1 7 12 -16 13 -15 13 9 4 18 -6
29 -6 33 0 4 6 13 7 23 1 11 -6 24 -6 34 0 10 6 19 6 23 0 3 -6 15 -7 28 -2
35 14 39 13 48 -1 6 -9 9 -10 9 -1 0 7 6 11 13 9 6 -1 9 -1 4 1 -4 3 -4 9 -1
15 3 5 15 2 27 -9 19 -16 20 -16 8 0 -15 20 -2 23 19 5 11 -10 11 -9 0 6 -14
18 -13 19 7 14 17 -5 20 -2 15 11 -5 14 -4 14 11 2 14 -11 17 -11 17 0 0 11 2
11 10 -1 5 -8 10 -10 10 -5 0 12 40 12 60 0 9 -5 11 -4 6 3 -4 7 -1 12 9 12
10 0 14 -5 9 -12 -5 -10 -4 -10 6 -1 7 6 20 9 29 6 13 -4 14 -3 1 5 -8 6 -19
8 -25 5 -5 -4 -6 -2 -2 3 5 5 14 9 20 9 7 1 11 7 9 13 -2 10 3 10 16 3 13 -7
22 -7 30 1 13 13 35 1 26 -15 -4 -7 3 -2 15 11 12 12 26 20 32 17 19 -12 49
-13 55 -3 5 7 2 8 -7 3 -11 -6 -12 -5 -2 5 7 8 18 15 25 16 31 5 43 10 50 19
5 6 8 6 8 -1 0 -7 7 -14 14 -17 10 -4 13 -1 9 9 -3 7 0 14 6 14 10 0 15 -14
12 -33 -1 -5 3 -6 8 -2 6 3 8 12 5 20 -4 10 0 13 15 10 11 -2 23 0 26 6 4 5
12 9 18 9 8 0 7 -3 -2 -9 -9 -6 -4 -8 17 -8 17 1 28 5 26 9 -3 4 8 6 23 5 21
-1 27 2 25 15 -1 9 3 20 9 24 7 4 10 3 6 -2 -11 -18 56 -7 69 11 13 18 14 17
15 -6 0 -13 3 -19 5 -12 3 6 17 10 32 8 15 -2 21 -2 14 1 -6 3 -9 11 -6 16 5
7 2 8 -7 3 -8 -5 -11 -5 -7 0 4 4 2 15 -5 24 -10 14 -10 14 3 5 23 -17 59 -23
67 -12 3 6 1 8 -5 4 -6 -3 -13 -2 -16 3 -7 10 19 9 30 -1 8 -9 35 2 29 11 -2
4 9 5 26 3 18 -3 29 0 29 7 0 7 -5 9 -12 5 -9 -5 -9 -3 1 9 7 9 16 15 20 13 4
-3 13 -1 21 4 8 5 22 5 32 -1 11 -6 18 -6 18 0 0 5 9 7 20 4 11 -3 20 0 20 6
0 6 -5 11 -12 11 -23 0 2 13 32 16 22 3 29 0 25 -9 -4 -6 3 -1 14 12 12 13 21
19 21 14 0 -5 7 -10 15 -10 10 0 14 6 10 16 -4 11 0 9 16 -5 22 -19 22 -19 10
3 -8 16 -8 24 1 29 6 4 8 3 4 -4 -3 -6 -2 -13 3 -16 5 -3 11 4 14 15 5 17 9
19 26 10 17 -9 19 -9 15 3 -3 8 0 17 7 22 7 4 10 3 5 -4 -3 -6 -1 -14 5 -18
12 -7 31 15 23 27 -2 4 1 11 7 15 8 5 9 3 4 -6 -6 -10 -4 -12 9 -7 12 5 15 3
10 -6 -4 -6 3 -2 15 11 18 18 26 21 37 11 10 -8 14 -8 14 0 0 6 5 11 11 11 5
0 7 -6 3 -12 -6 -10 -5 -10 7 -1 8 6 18 12 23 12 14 1 17 31 3 31 -5 0 -8 3
-5 6 4 3 17 0 30 -7 20 -11 21 -10 11 3 -10 12 -10 15 2 15 8 0 15 -5 15 -10
0 -6 8 -3 18 6 10 10 22 14 26 10 4 -5 6 1 4 12 -2 15 2 20 20 19 12 -1 22 3
22 8 0 5 9 4 19 -2 20 -10 23 0 7 30 -4 8 2 4 13 -9 23 -25 27 -21 11 9 -9 16
-7 18 16 14 27 -5 58 12 48 27 -3 5 0 9 6 9 7 0 10 -6 7 -14 -3 -8 1 -17 9
-20 9 -3 12 -1 9 4 -3 6 -2 10 3 10 6 0 13 7 16 16 5 13 4 14 -7 6 -10 -9 -14
-8 -14 1 0 16 29 18 39 3 5 -7 8 -4 8 6 0 12 5 15 16 11 12 -4 15 -2 12 8 -3
8 -11 13 -17 11 -7 -1 -10 2 -7 7 3 5 14 8 24 7 9 -2 22 4 28 13 10 13 14 14
30 1 16 -13 17 -13 12 1 -5 12 -1 15 18 13 13 -1 22 2 18 7 -3 5 -9 7 -14 4
-5 -3 -11 -1 -15 4 -3 6 6 8 21 5 16 -3 23 -1 19 6 -3 5 1 10 10 10 9 0 13 -5
10 -11 -4 -6 2 -5 14 3 12 7 17 14 11 16 -14 5 -12 23 2 20 7 -2 12 2 13 9 0
19 15 28 15 9 0 -13 4 -15 20 -6 11 6 17 16 14 25 -6 15 6 20 35 15 9 -1 12 5
8 20 -4 16 -1 20 11 17 9 -2 16 -9 14 -16 -1 -7 2 -9 8 -6 8 5 5 13 -6 26 -16
18 -16 19 -1 13 11 -4 17 -1 18 10 3 32 4 36 12 36 4 0 10 0 13 0 4 0 1 -8 -7
-17 -12 -16 11 3 60 51 12 11 25 15 33 11 10 -6 11 -5 1 5 -11 11 -17 10 -36
-8 -13 -12 -27 -22 -32 -22 -11 0 31 36 72 61 18 11 33 23 33 25 0 3 -5 2 -12
-2 -6 -4 -4 3 5 16 13 19 14 27 4 39 -8 9 -8 12 -1 8 13 -7 38 16 28 26 -3 3
5 3 18 0 14 -3 18 -1 11 4 -12 8 -13 64 -1 57 4 -3 12 4 18 13 10 16 10 15 5
-4 -4 -13 -2 -23 3 -23 6 0 9 20 9 44 -1 24 1 42 6 39 9 -6 4 28 -7 46 -6 10
-5 12 3 7 6 -4 14 0 17 8 3 9 11 16 16 16 7 0 6 -5 -1 -13 -6 -8 -7 -18 -3
-22 4 -5 1 -5 -5 -1 -9 5 -11 2 -6 -9 4 -13 8 -14 14 -4 4 7 5 17 2 23 -4 5 1
7 10 3 12 -4 14 -2 10 11 -4 9 -11 20 -17 24 -7 5 -6 8 3 8 7 0 11 6 7 15 -3
8 -1 15 5 15 6 0 6 7 -1 20 -9 16 -8 22 5 26 14 6 14 8 -2 20 -10 7 -13 14 -7
14 13 0 12 38 -1 60 -8 13 -7 13 11 0 10 -8 24 -21 29 -28 8 -10 11 -9 11 7 0
11 -3 18 -7 15 -4 -2 -12 3 -19 11 -7 8 -9 15 -4 15 5 0 2 5 -6 10 -12 8 -12
10 -1 10 11 0 11 3 1 16 -11 12 -11 15 1 12 9 -2 14 5 14 19 0 12 5 26 9 30 5
5 6 2 1 -6 -5 -10 -4 -12 4 -7 8 5 5 16 -9 37 -12 16 -18 29 -13 29 4 0 1 5
-7 10 -13 9 -13 10 0 10 11 1 10 4 -5 17 -16 13 -17 15 -2 10 17 -6 24 7 9 17
-13 8 -8 42 8 63 12 15 12 16 0 6 -20 -18 -35 -16 -20 2 7 8 8 15 3 15 -5 0
-8 12 -7 28 1 15 -4 33 -10 41 -8 11 -8 13 2 7 21 -12 13 10 -10 30 -13 10
-17 12 -11 4 7 -9 8 -21 4 -29 -6 -9 -11 -10 -15 -2 -4 6 -2 11 5 11 7 0 5 8
-7 22 -10 12 -14 19 -9 15 6 -3 17 -2 25 4 11 6 12 9 2 9 -8 0 -10 5 -6 13 6
9 5 9 -7 0 -12 -9 -14 -5 -13 28 2 36 0 39 -20 34 -18 -5 -19 -5 -3 5 23 15
23 34 -1 21 -15 -8 -18 -5 -20 15 -1 17 2 23 11 19 6 -4 4 0 -5 8 -14 11 -15
16 -5 27 10 10 9 12 -4 7 -11 -3 -15 1 -15 17 1 14 -4 20 -16 18 -14 -2 -16 3
-13 26 4 33 -8 61 -19 43 -4 -6 -2 -11 5 -11 7 0 10 -2 7 -5 -3 -3 -13 -3 -22
1 -14 5 -14 9 -4 22 10 12 10 14 1 8 -9 -5 -13 2 -13 25 0 28 -2 30 -17 18
-15 -12 -16 -12 -10 4 4 10 3 16 -2 12 -5 -3 -12 -1 -16 5 -3 5 -1 10 4 10 6
0 11 5 11 10 0 7 -6 7 -19 1 -16 -9 -18 -8 -14 9 3 11 10 17 17 13 6 -3 -2 8
-18 25 -16 17 -33 29 -38 26 -5 -3 -8 2 -6 11 2 10 -3 20 -11 23 -8 2 -11 0
-8 -5 3 -5 1 -10 -6 -10 -7 0 -12 14 -12 31 0 26 -4 31 -27 34 -17 2 -28 9
-28 18 0 9 5 12 11 8 7 -4 7 2 -1 17 -16 30 -25 39 -17 17 3 -9 0 -19 -8 -22
-9 -3 -12 1 -10 15 3 17 1 19 -10 9 -11 -9 -12 -7 -8 9 5 19 -8 27 -39 23 -3
-1 -9 5 -12 13 -3 10 0 12 12 9 14 -5 14 -3 -2 10 -13 10 -16 20 -10 29 5 7 1
4 -8 -6 -16 -17 -22 -15 -19 6 0 4 -4 7 -9 7 -6 0 -10 6 -10 14 0 18 -25 27
-38 14 -6 -6 -12 -6 -17 3 -6 8 -4 10 5 4 10 -6 12 -4 7 9 -5 12 -3 15 6 11 6
-4 3 0 -7 9 -10 8 -22 14 -25 12 -8 -5 -25 16 -29 34 -2 8 -8 20 -14 25 -8 7
-9 4 -4 -10 6 -20 6 -20 -9 -1 -8 11 -15 27 -15 35 0 14 -1 14 -10 1 -9 -13
-10 -13 -11 0 -1 8 -1 19 0 23 1 5 -3 6 -9 2 -6 -3 -8 -12 -4 -18 3 -7 -1 -4
-9 5 -7 10 -18 14 -23 10 -5 -4 -2 0 7 8 15 15 14 17 -9 28 -20 9 -28 9 -34
-1 -4 -6 -8 -7 -8 -1 0 5 6 16 13 23 9 11 9 12 0 7 -7 -4 -22 -9 -32 -11 -14
-3 -18 1 -14 12 4 10 8 11 13 3 5 -8 11 -6 20 5 12 14 12 16 -1 15 -29 -4 -40
0 -33 13 5 7 1 7 -10 -2 -15 -12 -19 -12 -26 -1 -4 7 -6 19 -3 26 3 9 -2 12
-19 9 -22 -4 -22 -4 -4 10 11 8 14 15 7 15 -7 0 -9 5 -5 12 4 7 3 8 -5 4 -6
-4 -9 -12 -6 -17 4 -5 -1 -9 -10 -9 -11 0 -15 5 -12 15 4 8 2 17 -4 20 -5 4
-6 12 -2 18 3 7 -3 4 -14 -6 -24 -21 -40 -23 -23 -1 11 12 11 15 -1 12 -8 -2
-13 3 -11 11 2 9 -5 12 -23 9 -17 -4 -25 -1 -25 8 0 8 -5 14 -11 14 -15 0 -89
62 -84 70 7 11 -30 8 -37 -4 -5 -6 -8 -1 -8 12 0 12 -5 22 -11 22 -5 0 -7 -4
-4 -10 3 -5 0 -7 -9 -4 -8 3 -17 13 -20 21 -5 12 -3 13 7 5 9 -8 17 -8 27 0
13 8 13 9 0 5 -9 -3 -24 1 -35 9 -10 8 -24 14 -29 14 -6 0 -4 -5 4 -10 9 -6
10 -10 3 -10 -6 0 -15 5 -18 10 -4 6 -10 8 -15 5 -5 -3 -11 -1 -15 5 -4 6 -11
8 -16 5 -5 -4 -9 -1 -9 4 0 14 13 14 28 -1 7 -7 12 -9 12 -4 0 14 -25 33 -39
28 -10 -3 -11 0 -5 9 6 11 3 10 -11 -1 -14 -12 -19 -12 -23 -2 -2 8 -8 10 -16
3 -7 -6 -18 -4 -30 5 -11 8 -15 14 -10 14 6 0 15 -5 20 -10 8 -8 14 -6 23 3 9
12 8 16 -4 21 -11 4 -14 2 -10 -7 4 -6 0 -4 -8 6 -11 14 -16 15 -20 5 -4 -11
-6 -11 -6 0 -1 7 -5 10 -11 7 -5 -3 -10 0 -10 7 0 9 -3 9 -10 -2 -6 -10 -10
-11 -10 -2 0 6 -5 12 -11 12 -5 0 -7 -5 -3 -12 4 -6 3 -8 -3 -5 -6 4 -8 19 -6
34 4 26 3 27 -9 8 -15 -24 -40 -31 -32 -10 4 8 11 12 17 8 6 -3 7 -1 3 5 -7
11 -37 9 -58 -4 -7 -5 -8 -3 -3 6 6 10 3 12 -13 8 -12 -4 -20 -1 -19 4 1 6 -4
13 -12 16 -8 2 -11 0 -7 -6 7 -12 -20 -10 -31 3 -4 4 -3 5 3 2 7 -4 17 -1 23
7 9 11 7 15 -9 19 -11 3 -18 1 -14 -4 3 -5 0 -9 -5 -9 -6 0 -11 4 -11 9 0 4
-11 6 -25 3 -15 -2 -25 0 -25 7 0 8 -6 9 -18 2 -17 -9 -52 7 -52 24 0 4 7 2
15 -5 10 -9 15 -9 15 -1 0 6 -5 11 -11 11 -5 0 -7 5 -3 11 3 6 -5 4 -19 -6
-19 -12 -27 -13 -33 -4 -5 8 -3 10 7 4 8 -5 11 -4 6 0 -10 11 -48 14 -41 3 3
-4 1 -8 -5 -8 -5 0 -11 5 -13 11 -3 9 -9 9 -25 0 -15 -8 -24 -8 -28 0 -4 6
-13 8 -21 5 -7 -3 -16 0 -20 6 -4 7 -9 6 -14 -2 -5 -8 -9 -6 -14 6 -4 10 -4
15 0 11 4 -4 14 -1 22 6 12 9 14 9 9 0 -5 -8 -1 -11 13 -8 11 2 20 -2 20 -8 0
-7 5 -4 11 6 6 10 8 21 5 24 -3 4 -6 1 -6 -6 0 -7 -5 -9 -12 -5 -21 13 -172
14 -181 1 -5 -7 -6 -4 -3 9 4 14 2 21 -8 21 -8 0 -12 -6 -9 -12 3 -9 -5 -11
-24 -8 -15 2 -34 5 -40 5 -7 1 -13 5 -13 10 0 11 7 10 33 -3 20 -9 20 -9 5 4
-10 8 -14 18 -10 22 4 4 -3 3 -15 -4 -18 -9 -24 -8 -31 5 -7 13 -10 13 -21 1
-9 -12 -9 -15 5 -13 9 0 18 -5 20 -12 1 -7 0 -8 -3 -2 -2 5 -9 10 -14 10 -6 0
-8 -4 -5 -8 3 -5 -1 -9 -9 -9 -8 0 -12 4 -9 9 3 4 0 8 -7 8 -6 0 -18 8 -26 18
-13 16 -14 15 -8 -5 3 -12 1 -24 -4 -28 -7 -3 -8 0 -5 9 8 22 -24 32 -48 17
-11 -7 -18 -9 -15 -4 3 5 2 15 -4 23 -7 12 -9 9 -9 -9 0 -24 0 -24 -16 -5 -8
10 -13 13 -9 7 3 -7 2 -13 -4 -13 -5 0 -12 6 -14 13 -4 9 -6 9 -6 -1 -1 -8 -6
-10 -13 -6 -17 11 -68 12 -68 2 0 -4 -4 -8 -10 -8 -5 0 -7 8 -4 18 4 10 2 13
-3 7 -4 -6 -28 -12 -53 -13 -25 -2 -56 -4 -70 -5 -14 -2 -33 4 -43 12 -10 9
-17 11 -15 6 1 -6 -5 -21 -15 -35 -9 -13 -17 -20 -17 -14 0 5 5 15 12 22 9 9
9 12 0 13 -7 1 -18 2 -24 3 -7 1 -19 -3 -27 -8 -17 -14 -14 -14 -36 4 -17 14
-18 14 -6 -8 12 -22 14 -23 37 -7 26 16 32 12 12 -9 -7 -7 -26 -11 -41 -11
-16 1 -32 -5 -38 -14 -8 -14 -9 -13 -7 3 2 10 -3 21 -11 24 -8 3 -11 0 -7 -6
3 -6 2 -14 -4 -17 -6 -4 -9 -1 -8 6 2 6 -3 14 -10 16 -7 3 -10 -1 -7 -9 5 -12
0 -13 -73 -9 -7 1 -10 6 -6 13 4 7 3 8 -5 4 -6 -4 -9 -12 -6 -17 4 -5 3 -9 -2
-10 -4 0 -19 -2 -31 -3 -13 -2 -28 -9 -33 -17 -7 -12 -11 -11 -26 5 -17 19
-17 19 1 5 17 -12 18 -12 11 0 -5 8 -4 12 1 8 6 -3 16 -2 23 2 7 5 -4 8 -28 7
-29 -1 -37 -4 -30 -13 7 -7 6 -14 -1 -18 -6 -3 -7 -12 -3 -18 5 -9 3 -9 -8 0
-12 10 -18 10 -27 1 -9 -9 -12 -9 -12 1 0 11 -3 11 -17 0 -14 -12 -16 -12 -9
0 6 9 5 12 -5 9 -8 -3 -13 -11 -11 -18 2 -10 -1 -10 -14 1 -14 11 -18 11 -22
1 -3 -9 -7 -10 -17 -2 -9 8 -17 6 -30 -6 -12 -12 -13 -19 -5 -24 7 -4 0 -9
-18 -12 -17 -2 -29 -1 -26 4 3 4 0 8 -5 8 -6 0 -11 -4 -11 -10 0 -5 -4 -10
-10 -10 -5 0 -7 8 -4 18 3 11 1 9 -6 -4 -7 -11 -26 -29 -43 -39 -36 -22 -81
-30 -71 -13 4 7 2 8 -4 4 -9 -5 -9 -13 -2 -26 7 -13 7 -21 0 -25 -9 -6 -14 1
-12 17 1 3 -5 8 -12 11 -10 4 -12 -1 -9 -16 3 -16 2 -18 -5 -8 -11 15 -21 4
-17 -21 3 -16 1 -17 -18 -3 -26 18 -48 20 -23 2 17 -12 17 -14 -1 -28 -16 -13
-17 -13 -4 4 8 9 9 17 3 17 -6 0 -20 -12 -31 -28 -12 -15 -19 -20 -16 -12 4
11 -1 16 -14 16 -11 0 -19 -5 -18 -11 1 -5 -5 -9 -13 -7 -11 3 -10 -1 4 -17
18 -20 5 -24 -22 -8 -7 5 -14 2 -18 -7 -3 -9 -10 -14 -14 -11 -5 3 -12 0 -16
-6 -4 -7 -3 -9 3 -6 6 4 16 0 23 -8 11 -13 10 -14 -4 -9 -10 4 -16 1 -16 -7 0
-8 -6 -5 -15 7 -11 14 -14 15 -9 3 3 -10 0 -20 -5 -24 -6 -3 -8 -11 -5 -17 4
-6 2 -8 -4 -4 -6 3 -13 2 -17 -4 -4 -6 -11 -7 -17 -4 -8 5 -9 1 -5 -10 4 -9 3
-14 -2 -11 -5 3 -13 0 -16 -6 -4 -5 -14 -8 -22 -4 -14 5 -14 3 -2 -12 9 -11
10 -14 2 -9 -8 4 -13 2 -14 -6 0 -7 -4 -4 -9 7 -7 17 -9 17 -9 3 -1 -10 -7
-16 -13 -14 -7 1 -10 1 -5 -1 4 -3 7 -9 7 -14 0 -6 -4 -7 -10 -4 -5 3 -10 -1
-10 -9 0 -9 -7 -13 -19 -11 -24 4 -36 -22 -19 -44 12 -14 11 -14 -4 -2 -10 7
-19 11 -19 7 -1 -3 -2 -10 -3 -15 0 -5 -5 -13 -10 -18 -5 -5 -6 -3 -2 5 4 7 1
12 -8 12 -9 0 -13 -6 -10 -14 5 -12 -21 -29 -48 -31 -3 0 -10 -4 -15 -9 -5 -5
-3 -6 5 -2 19 11 15 -19 -5 -35 -11 -10 -14 -10 -9 -1 10 17 -2 15 -20 -3 -9
-8 -11 -15 -6 -15 6 0 9 -8 8 -17 -3 -18 -12 -21 -24 -7 -4 4 -1 4 7 -1 10 -6
12 -4 7 4 -6 9 -12 9 -25 -3 -10 -9 -21 -13 -26 -9 -4 5 -5 2 -1 -5 6 -11 11
-11 24 0 16 12 16 11 1 -7 -9 -11 -19 -27 -22 -35 -3 -8 -6 -10 -6 -3 -1 8 -7
8 -25 0 -22 -10 -22 -13 -7 -24 9 -7 12 -12 6 -11 -19 4 -56 -13 -54 -25 3
-27 -2 -34 -23 -33 -17 1 -22 -4 -20 -18 2 -10 0 -16 -5 -13 -4 3 -17 -1 -27
-8 -18 -13 -18 -14 2 -12 11 0 18 5 15 11 -4 5 -1 6 7 1 10 -6 9 -11 -4 -21
-10 -7 -17 -16 -17 -21 -1 -4 -3 -10 -6 -13 -4 -3 -3 0 1 7 3 6 2 14 -4 18 -9
5 -15 -15 -11 -38 1 -5 -4 -5 -10 -1 -8 5 -11 1 -7 -13 4 -16 1 -19 -17 -15
-13 2 -26 -2 -30 -9 -5 -8 -4 -10 3 -5 7 4 12 2 12 -3 0 -6 -6 -11 -12 -11
-10 0 -10 -2 0 -9 11 -7 10 -10 -3 -15 -9 -3 -21 -4 -26 0 -10 6 -10 4 -13
-46 -1 -30 -5 -35 -26 -35 -21 0 -25 -5 -25 -31 1 -22 -4 -30 -17 -31 -10 -1
-16 2 -13 8 4 5 4 9 1 9 -3 0 -10 -10 -17 -21 -8 -15 -8 -19 0 -15 6 4 11 2
11 -3 0 -6 -5 -11 -11 -11 -5 0 -7 -4 -4 -10 3 -6 0 -10 -7 -10 -9 0 -9 -3 2
-10 13 -8 13 -11 1 -22 -8 -7 -11 -8 -8 -2 4 7 0 14 -8 17 -10 4 -12 1 -8 -10
5 -12 3 -14 -8 -8 -11 7 -11 5 1 -10 8 -10 10 -16 5 -13 -6 4 -17 3 -25 -3
-13 -7 -12 -9 2 -9 12 0 16 -6 13 -21 -3 -12 -7 -24 -11 -28 -4 -3 -4 2 -1 12
4 9 2 17 -3 17 -6 0 -10 -6 -10 -12 0 -10 -3 -9 -9 1 -5 8 -11 9 -15 3 -4 -6
2 -15 11 -21 17 -10 17 -10 0 -11 -14 0 -18 -6 -15 -27 2 -19 -2 -28 -12 -29
-43 -4 -45 -5 -25 -14 15 -6 16 -9 4 -9 -11 -1 -15 -10 -14 -31 1 -16 -2 -35
-6 -42 -7 -10 -9 -10 -9 0 0 6 -5 12 -11 12 -5 0 -7 -4 -4 -10 3 -5 2 -10 -3
-10 -6 0 -13 -7 -16 -16 -4 -10 -2 -13 7 -8 9 6 9 5 0 -7 -9 -11 -9 -19 -2
-26 7 -7 0 -9 -20 -8 -17 1 -28 -2 -25 -7 4 -5 12 -7 20 -4 8 3 14 2 14 -3 0
-5 -9 -11 -20 -14 -16 -4 -20 -14 -20 -46 0 -29 -5 -43 -19 -50 -10 -6 -22 -7
-26 -3 -5 4 -5 2 -2 -5 4 -6 4 -13 0 -16 -7 -3 11 1 27 6 3 1 5 -3 5 -8 0 -6
-5 -9 -11 -7 -7 1 -15 -2 -19 -8 -5 -8 -12 -7 -23 2 -15 11 -15 11 0 -7 12
-14 14 -25 8 -35 -8 -13 -10 -13 -10 -1 0 8 -3 11 -7 8 -3 -4 -12 -2 -20 4
-11 10 -11 15 -1 27 11 13 10 15 -5 9 -17 -6 -17 -4 2 21 19 27 19 30 3 45
-15 16 -15 17 1 17 18 0 23 15 8 25 -15 9 -9 47 11 76 9 14 15 29 11 33 -3 3
-2 6 4 6 5 0 10 6 10 14 0 8 -6 12 -13 9 -7 -2 -11 -13 -9 -24 3 -12 0 -17 -7
-13 -6 4 -8 3 -4 -4 3 -6 3 -13 -2 -16 -4 -2 -9 4 -9 15 -1 10 3 19 9 19 6 0
5 7 -3 17 -8 9 -9 14 -3 10 15 -9 38 19 28 34 -4 7 -3 9 3 6 5 -3 10 0 10 7 0
8 -7 12 -16 9 -14 -4 -14 -3 0 9 9 7 14 23 12 36 -1 13 0 21 5 18 4 -2 7 11 7
30 0 19 -4 34 -10 34 -5 0 -4 4 4 9 9 6 10 11 2 15 -6 4 -11 12 -11 17 0 6 4
8 8 5 10 -6 9 30 -1 40 -4 4 -2 14 5 21 9 11 9 16 -1 23 -11 6 -11 8 -1 12 10
3 10 9 1 25 -7 13 -7 24 -2 28 13 7 10 48 -4 57 -6 5 -5 8 3 8 7 0 10 5 6 12
-4 7 -3 8 4 4 7 -4 12 -13 12 -20 0 -8 7 -20 17 -27 15 -13 15 -12 2 10 -11
18 -11 25 -1 28 6 3 12 9 12 15 0 7 -5 6 -14 -1 -10 -9 -15 -8 -20 4 -7 19 3
47 16 39 5 -3 4 -13 -3 -22 -10 -13 -9 -13 7 1 16 15 17 19 4 27 -12 8 -13 12
-2 19 11 6 10 10 -4 15 -10 4 -15 4 -12 0 10 -9 -10 -44 -25 -43 -9 0 -9 2 1
6 6 2 10 9 6 14 -3 5 0 9 6 9 6 0 9 4 5 9 -3 5 -1 12 5 16 6 4 7 11 4 17 -9
14 -14 58 -7 58 2 0 14 -5 26 -12 19 -10 20 -9 10 4 -7 8 -10 18 -6 21 3 4 2
7 -4 7 -6 0 -14 7 -17 16 -5 14 -4 15 9 4 13 -11 15 -9 11 11 -2 13 1 30 6 36
7 9 5 15 -6 19 -9 3 -16 10 -16 16 0 5 5 6 10 3 6 -3 10 3 10 14 0 12 -5 21
-11 21 -6 0 -3 7 5 16 14 14 14 34 0 34 -3 0 -2 -6 2 -12 5 -9 2 -9 -9 1 -18
14 -22 22 -9 20 18 -3 32 2 32 11 0 5 -8 7 -17 3 -15 -5 -16 -3 -5 8 14 15 16
43 2 34 -6 -3 -7 1 -4 9 3 9 11 13 16 10 6 -4 5 3 -1 15 -8 14 -8 21 -1 21 8
0 8 6 0 20 -8 15 -8 20 2 21 7 0 4 4 -7 9 l-20 9 20 0 c11 1 16 5 10 9 -13 10
-14 72 -1 72 6 0 4 5 -4 10 -8 5 -10 10 -4 10 11 0 10 63 -2 82 -5 8 -1 9 11
4 18 -6 18 -6 2 12 -9 10 -15 21 -12 24 3 3 6 48 7 99 1 52 6 100 12 108 8 11
8 13 0 8 -7 -4 -15 0 -18 9 -3 9 -2 12 5 9 6 -4 7 3 3 21 -5 19 -4 25 5 20 18
-11 13 5 -6 21 -10 8 -12 12 -5 8 9 -5 11 3 6 29 -3 22 -1 36 5 36 6 0 11 5
11 11 0 5 -5 7 -11 3 -7 -4 -10 -1 -7 7 3 8 1 22 -4 33 -7 13 -7 16 1 12 10
-7 13 0 10 22 -1 4 -6 6 -12 4 -6 -2 -3 7 8 19 18 20 18 22 2 16 -14 -5 -16
-3 -8 12 7 12 6 22 -2 31 -9 10 -9 11 1 6 6 -4 12 -2 12 5 0 8 4 9 13 0 10 -8
14 -7 14 4 0 7 -3 14 -6 13 -3 0 -15 0 -26 1 -16 1 -17 3 -6 10 8 5 21 7 30 4
14 -4 14 -3 1 5 -8 6 -17 9 -20 7 -4 -2 -7 2 -7 11 0 10 7 13 21 9 17 -5 16
-3 -4 9 -14 9 -21 15 -16 16 5 0 3 6 -3 13 -8 10 -7 19 5 33 14 18 15 18 4 -3
-7 -16 -7 -23 0 -23 5 0 10 8 10 18 0 14 2 15 10 2 14 -22 12 -3 -2 20 -9 14
-10 23 -3 28 12 8 16 82 5 82 -7 0 -19 27 -24 55 -1 6 2 16 7 23 6 8 5 12 -4
12 -8 1 2 10 21 21 19 11 26 17 15 15 -27 -7 -54 9 -30 17 11 5 14 3 9 -6 -6
-9 -4 -9 8 1 15 12 17 74 4 109 -3 7 2 13 12 14 12 0 9 4 -8 11 -14 6 -29 10
-33 9 -5 -1 -5 4 -2 10 5 8 10 8 18 0 6 -6 14 -11 17 -11 11 0 8 75 -4 82 -8
6 -8 8 1 8 6 0 11 15 10 34 -1 26 -5 33 -16 29 -12 -3 -11 -1 2 7 16 11 25 36
9 26 -5 -3 -9 1 -9 9 0 8 5 11 10 8 5 -3 7 0 5 8 -3 8 -11 13 -17 11 -7 -1
-10 2 -6 8 3 6 11 8 16 5 15 -10 10 7 -8 29 -15 17 -15 18 -2 8 14 -10 18 -10
23 3 3 9 2 13 -4 10 -6 -3 -10 -2 -10 4 0 5 5 13 10 16 8 5 8 11 0 20 -8 10
-7 16 7 25 15 10 15 11 1 6 -17 -5 -18 8 -2 48 6 15 4 17 -7 11 -12 -8 -12 -6
0 9 8 9 17 13 20 8 3 -6 11 -4 18 3 16 18 -14 30 -33 14 -10 -8 -14 -8 -14 0
0 6 5 11 11 11 5 0 8 4 5 8 -2 4 4 8 14 8 10 0 16 -5 13 -10 -4 -5 -1 -6 6 -2
7 5 10 11 7 14 -3 3 0 12 7 20 9 13 9 14 0 8 -8 -4 -13 -1 -13 8 0 10 6 13 15
10 17 -7 20 7 4 23 -8 8 -8 13 0 18 7 4 10 1 9 -7 -2 -7 5 -12 15 -12 15 2 16
-1 5 -15 -10 -13 -10 -14 1 -4 7 6 21 9 30 5 14 -5 14 -3 -1 12 -22 21 -23 27
-4 20 8 -3 17 -1 20 4 3 5 17 7 31 4 21 -4 24 -1 19 14 -4 13 -3 15 3 6 5 -7
19 -14 31 -17 19 -3 22 0 18 21 -3 13 0 24 5 24 5 0 9 -7 7 -16 -2 -11 5 -18
22 -20 18 -3 21 -2 10 5 -8 5 -18 7 -22 5 -4 -3 -5 3 -1 12 4 11 8 13 11 6 2
-7 8 -12 13 -12 6 0 8 4 5 9 -8 12 30 21 42 9 6 -6 12 -6 16 1 4 6 12 11 17
11 6 0 7 -6 3 -12 -6 -10 -5 -10 8 -1 8 7 19 9 24 5 4 -4 3 0 -3 8 -6 9 -7 23
-2 35 5 14 8 16 9 5 2 -8 2 -18 2 -21 -1 -3 6 -6 14 -6 17 0 19 14 3 19 -7 2
-4 10 7 18 10 8 15 10 11 3 -5 -8 1 -11 20 -8 16 2 30 4 33 5 3 2 8 2 12 2 3
-1 9 5 12 14 4 12 2 12 -14 4 -16 -8 -20 -8 -20 4 0 10 6 13 17 9 12 -5 14 -3
8 7 -6 10 -4 10 10 2 15 -8 24 -3 48 22 16 17 27 26 23 20 -3 -7 1 -15 10 -18
8 -3 12 -2 9 4 -3 6 1 20 9 32 9 12 16 18 16 12 0 -5 -5 -15 -12 -22 -16 -16
-6 -15 25 1 25 13 25 15 9 32 -16 18 -16 18 1 6 11 -9 17 -10 17 -2 0 6 5 11
11 11 5 0 7 -6 3 -12 -6 -10 -5 -10 8 -1 8 7 18 9 22 5 4 -4 7 -2 6 3 -1 6 -2
19 -1 30 1 16 3 17 10 6 5 -8 7 -21 4 -30 -4 -13 -3 -13 5 -2 6 8 8 21 5 29
-5 11 -1 13 18 7 19 -5 21 -4 9 4 -13 10 -13 12 0 21 20 13 30 12 26 -2 -1 -7
-1 -10 1 -5 3 4 10 4 16 0 9 -5 9 -3 0 8 -15 18 -3 40 24 42 13 1 20 8 19 22
-1 11 4 19 11 18 9 -2 10 4 3 25 -9 25 -9 26 5 8 14 -18 15 -18 15 -2 0 10 4
14 12 10 8 -5 9 0 6 14 -4 14 -2 20 5 15 6 -4 8 0 4 10 -7 18 13 19 25 2 4 -6
8 -1 9 10 1 11 2 27 3 35 0 8 9 15 18 15 10 0 23 6 30 14 7 8 8 11 2 8 -7 -4
-17 0 -23 7 -10 12 -8 14 11 9 18 -4 20 -3 8 6 -12 9 -11 11 8 11 12 0 22 5
22 11 0 5 -4 8 -9 5 -5 -3 -11 1 -14 9 -4 10 -1 12 10 8 11 -4 14 -2 9 5 -5 8
-2 10 8 6 9 -3 13 -11 9 -17 -4 -6 -1 -7 6 -3 7 5 10 14 7 21 -3 8 0 16 7 19
9 3 8 8 -3 16 -13 10 -13 11 1 7 9 -3 22 -1 30 3 8 5 19 4 28 -3 9 -7 7 0 -5
18 -10 16 -14 26 -7 22 6 -4 14 -3 18 3 3 5 15 10 26 10 10 0 19 5 19 10 0 6
-5 10 -12 10 -6 0 -8 3 -4 7 4 5 14 -1 22 -11 13 -19 14 -19 14 6 0 21 4 25
20 21 11 -3 20 -1 20 4 0 5 7 18 16 29 8 10 13 12 9 4 -4 -10 -2 -9 8 2 8 10
18 14 23 10 4 -4 3 0 -4 10 -9 11 -10 18 -2 23 6 3 8 10 5 15 -3 5 8 5 25 0
17 -5 28 -5 25 0 -3 4 -2 10 2 13 5 2 3 3 -3 1 -6 -1 -11 4 -11 11 0 8 7 11
16 7 13 -5 14 -3 4 10 -18 21 -3 31 18 12 16 -14 17 -14 15 1 -1 9 -9 21 -17
27 -11 8 -10 9 5 4 14 -5 17 -2 12 10 -4 11 1 18 14 21 19 5 20 6 3 19 -10 8
-12 13 -5 12 6 -2 21 11 32 28 15 23 17 31 6 31 -8 0 -12 -6 -10 -12 3 -7 -2
-18 -11 -25 -18 -15 -21 0 -3 18 9 9 9 12 -2 12 -8 1 -1 8 15 17 19 10 25 18
17 21 -8 2 -19 -1 -25 -7 -6 -6 -16 -11 -21 -11 -6 0 -3 5 7 11 9 5 17 15 17
20 0 6 -6 7 -12 3 -9 -5 -9 -2 1 9 12 15 9 21 -11 18 -4 0 -5 6 -1 15 3 9 9
12 15 6 8 -8 11 -17 17 -52 1 -3 5 1 10 9 6 9 4 19 -5 28 -15 15 -19 38 -6 29
5 -3 9 2 9 10 0 10 -4 11 -11 4 -14 -14 -27 -13 -24 3 2 6 -4 11 -12 9 -13 -2
-13 -1 0 10 16 13 20 42 8 53 -4 4 -4 13 -2 20 3 7 1 16 -5 20 -7 3 -8 0 -5
-9 6 -16 -19 -17 -33 -1 -4 4 -1 5 7 1 8 -4 6 0 -4 8 -11 9 -14 16 -8 16 7 0
12 4 12 10 0 5 -7 7 -15 4 -11 -5 -14 -2 -8 12 6 18 5 18 -17 -1 -13 -11 -20
-14 -16 -8 11 20 -13 56 -35 50 -10 -3 -18 -2 -17 2 3 24 -4 51 -13 51 -5 0
-7 -5 -4 -11 5 -7 0 -6 -12 1 -11 7 -19 24 -20 42 0 17 2 26 6 21 7 -12 42
-13 35 -1 -3 5 -10 5 -16 2 -7 -4 -8 -2 -4 5 4 6 11 9 16 6 11 -7 32 30 23 39
-3 3 -2 6 3 6 6 0 15 -5 22 -12 9 -9 11 -6 7 10 -2 12 3 29 11 37 10 9 11 15
4 15 -6 0 -10 6 -7 13 2 6 10 11 16 9 7 -1 9 6 5 22 -3 13 -1 27 5 31 6 3 8
11 5 17 -4 7 -2 8 5 4 6 -4 8 -13 5 -19 -5 -9 -3 -9 6 0 10 10 11 15 1 27 -9
11 -9 15 1 19 10 4 10 7 -1 15 -11 8 -11 10 0 14 8 3 10 9 4 19 -13 20 -15 40
-4 33 13 -8 11 10 -3 24 -9 9 -9 12 1 12 9 0 8 4 -3 15 -8 9 -13 23 -10 33 5
14 4 14 -4 3 -6 -8 -9 -23 -7 -34 3 -14 1 -16 -8 -9 -7 6 -13 23 -15 39 -1 22
0 25 9 13 9 -13 10 -13 6 0 -2 8 -10 16 -18 16 -8 1 -18 3 -24 4 -5 1 -13 2
-16 2 -3 -1 -6 5 -6 13 0 8 4 12 8 9 4 -2 11 1 15 7 4 7 3 9 -4 5 -6 -3 -18 1
-26 10 -9 9 -16 11 -16 4 0 -6 -4 -9 -9 -6 -5 4 -11 3 -14 -1 -2 -5 -2 -2 -1
5 2 6 0 12 -4 12 -5 0 -14 -6 -22 -12 -12 -11 -12 -10 -1 5 12 15 9 21 -11 18
-4 0 -5 6 -2 14 7 17 -7 20 -22 5 -8 -8 -15 -6 -25 6 -9 12 -10 15 -1 10 6 -4
12 -2 12 3 0 6 -7 11 -15 11 -8 0 -15 -4 -15 -10 0 -5 -6 -10 -12 -10 -7 1 -2
10 12 22 14 12 18 19 8 15 -9 -3 -19 -3 -22 1 -11 10 -37 11 -30 1 3 -5 10 -7
15 -4 5 4 9 1 9 -4 0 -16 -16 -13 -30 4 -7 9 -20 15 -29 14 -9 -1 -19 0 -23 1
-5 1 -14 3 -20 4 -7 0 -14 7 -14 14 -3 25 -6 27 -14 7 -7 -17 -9 -17 -9 -3 -1
12 -6 15 -18 11 -12 -5 -14 -3 -8 8 7 11 5 11 -10 -1 -14 -11 -19 -12 -22 -2
-3 6 -9 10 -14 6 -5 -3 -9 2 -9 11 0 9 4 14 8 11 5 -3 9 2 9 10 0 10 -4 11
-11 4 -14 -14 -29 -13 -20 2 4 7 3 8 -4 4 -9 -5 -9 -13 -2 -26 8 -16 8 -18 -4
-14 -9 3 -15 9 -14 12 2 22 -5 29 -32 27 -19 -1 -34 4 -40 14 -8 13 -9 11 -10
-9 0 -19 -2 -22 -9 -11 -6 9 -6 23 1 35 6 12 0 9 -14 -8 -17 -20 -25 -24 -25
-13 0 9 3 14 7 12 4 -2 7 2 7 10 0 19 -16 8 -28 -19 -9 -19 -9 -19 -5 4 6 32
-8 60 -17 35 -5 -11 -3 -14 6 -9 6 4 9 3 4 -1 -4 -5 -16 -9 -27 -10 -16 -1
-17 1 -8 12 9 11 6 12 -15 4 -22 -9 -25 -8 -20 7 6 16 5 16 -14 -1 -16 -14
-20 -15 -20 -2 0 8 4 15 9 15 4 0 8 5 8 12 0 8 -6 6 -17 -5 -16 -16 -18 -15
-30 11 -7 15 -11 18 -8 8 5 -16 3 -17 -11 -5 -21 18 -45 20 -62 7 -7 -6 -12
-7 -11 -2 3 19 -1 34 -11 34 -5 0 -8 -6 -6 -12 1 -7 1 -10 -1 -5 -3 4 -8 5
-12 3 -4 -3 -8 1 -8 9 0 8 3 12 7 10 3 -2 12 1 20 7 13 8 12 9 -1 5 -9 -3 -22
0 -29 6 -9 9 -11 9 -7 1 4 -7 0 -15 -9 -18 -11 -4 -15 -2 -11 7 5 14 -41 15
-64 2 -8 -5 -10 -4 -5 4 4 6 0 14 -8 17 -9 3 -13 10 -10 16 3 5 12 1 21 -9 13
-17 13 -16 3 5 -6 12 -14 20 -18 18 -5 -3 -14 -1 -22 4 -9 5 -20 4 -29 -3 -11
-9 -15 -9 -19 1 -2 7 -15 17 -29 23 -13 5 -22 13 -19 17 3 5 -1 9 -9 9 -8 0
-12 -4 -10 -8 3 -4 -2 -9 -10 -12 -10 -4 -12 -1 -8 10 5 12 2 15 -8 11 -9 -3
-34 -3 -57 2 -27 5 -43 3 -46 -4 -2 -6 -5 -1 -5 12 -1 12 -4 22 -8 23 -5 0
-15 2 -24 4 -9 1 -16 -3 -16 -11 0 -7 5 -10 11 -7 6 4 5 -1 -3 -10 -14 -18
-22 -22 -20 -9 4 21 -2 42 -10 37 -5 -3 -11 0 -14 7 -2 7 -2 0 0 -17z m-31 -4
c-4 -5 0 -12 6 -14 8 -3 6 -6 -4 -6 -18 -1 -24 10 -11 22 9 10 15 8 9 -2z m98
-21 c-6 -6 -10 -3 -10 10 0 13 4 16 10 10 7 -7 7 -13 0 -20z m-240 -18 c3 -5
-1 -9 -9 -9 -8 0 -12 4 -9 9 3 4 7 8 9 8 2 0 6 -4 9 -8z m353 -17 c0 -8 -4
-12 -9 -9 -5 3 -6 10 -3 15 9 13 12 11 12 -6z m75 -17 c-26 -10 -39 -9 -22 2
10 6 11 10 3 10 -7 0 -13 4 -13 9 0 5 11 4 25 -2 21 -10 22 -13 7 -19z m305
-113 c0 -8 -4 -12 -9 -9 -5 3 -6 10 -3 15 9 13 12 11 12 -6z m302 -98 c8 -10
7 -14 -2 -14 -8 0 -14 6 -14 14 0 7 1 13 2 13 2 0 8 -6 14 -13z m-1328 -64
c-12 -20 -14 -14 -5 12 4 9 9 14 11 11 3 -2 0 -13 -6 -23z m-264 -328 c0 -8
-4 -12 -9 -9 -5 3 -6 10 -3 15 9 13 12 11 12 -6z m-63 -113 c2 -4 -4 -8 -14
-8 -10 0 -16 4 -14 8 3 4 9 8 14 8 5 0 11 -4 14 -8z m2143 -66 c0 -8 -6 -12
-15 -9 -11 5 -11 7 0 14 7 5 13 9 14 9 0 0 1 -6 1 -14z m-2266 -99 c-10 -9
-11 -8 -5 6 3 10 9 15 12 12 3 -3 0 -11 -7 -18z m2210 -64 c13 -16 12 -17 -3
-4 -10 7 -18 15 -18 17 0 8 8 3 21 -13z m162 -146 c7 3 8 2 4 -2 -14 -16 -36
-14 -29 3 4 10 7 12 10 4 2 -7 9 -9 15 -5z m-2456 -131 c-10 -8 -17 -16 -15
-19 2 -3 0 -8 -4 -12 -3 -4 -5 1 -4 10 1 9 9 21 17 26 22 14 26 10 6 -5z m4
-39 c-10 -9 -11 -8 -5 6 3 10 9 15 12 12 3 -3 0 -11 -7 -18z m-67 -447 c-6 -6
-10 -3 -10 10 0 13 4 16 10 10 7 -7 7 -13 0 -20z m-34 -244 c0 -3 -4 -8 -10
-11 -5 -3 -10 -1 -10 4 0 6 5 11 10 11 6 0 10 -2 10 -4z m2014 -25 c3 -5 -1
-11 -9 -15 -8 -3 -17 0 -21 6 -4 7 -3 8 4 4 7 -4 12 -2 12 3 0 13 7 14 14 2z
m-2065 -141 c-8 -6 -6 -9 7 -12 18 -4 18 -4 -1 -9 -17 -5 -21 -1 -21 16 0 15
5 21 14 18 10 -5 11 -8 1 -13z m1593 -147 c-10 -4 -10 -8 0 -21 12 -15 11 -16
-4 -3 -19 14 -15 32 5 30 8 0 8 -2 -1 -6z m-22 -27 c0 -3 -4 -8 -10 -11 -5 -3
-10 -1 -10 4 0 6 5 11 10 11 6 0 10 -2 10 -4z m-1609 -13 c-11 -5 -11 -7 0
-14 11 -7 11 -9 1 -9 -10 0 -10 -5 -1 -22 12 -23 12 -23 -8 -3 -14 14 -17 22
-9 27 6 4 7 8 3 8 -5 0 -5 5 -2 10 3 6 12 10 18 9 8 0 7 -3 -2 -6z m-37 -219
c3 -8 2 -12 -4 -9 -6 3 -10 10 -10 16 0 14 7 11 14 -7z m1284 -379 c-3 -3 -9
2 -12 12 -6 14 -5 15 5 6 7 -7 10 -15 7 -18z m2 -99 c0 -3 -4 -8 -10 -11 -5
-3 -10 -1 -10 4 0 6 5 11 10 11 6 0 10 -2 10 -4z m-3 -41 c0 -8 -4 -12 -9 -9
-4 3 -8 9 -8 15 0 5 4 9 8 9 5 0 9 -7 9 -15z m-23 -160 c15 -23 15 -25 0 -25
-10 0 -14 3 -11 6 3 4 2 15 -4 25 -14 28 -4 23 15 -6z m11 -54 c-2 -9 -4 -19
-4 -22 -1 -3 -8 -6 -16 -6 -11 0 -12 4 -4 13 6 7 8 17 5 22 -3 5 1 9 8 9 8 0
12 -7 11 -16z m2428 -522 c-8 -8 -13 -7 -18 2 -5 8 -4 10 3 5 7 -4 12 -2 12 5
0 7 3 9 7 6 4 -4 2 -12 -4 -18z m-353 7 c0 -3 -4 -8 -10 -11 -5 -3 -10 -1 -10
4 0 6 5 11 10 11 6 0 10 -2 10 -4z m180 -6 c0 -5 -5 -10 -11 -10 -5 0 -7 5 -4
10 3 6 8 10 11 10 2 0 4 -4 4 -10z m-747 -91 c5 -3 1 -9 -8 -12 -9 -4 -13 -3
-10 3 3 6 1 10 -5 10 -6 0 -8 5 -5 11 4 6 10 7 14 2 3 -4 10 -11 14 -14z
m-3268 -41 c5 -4 0 -6 -12 -6 -13 1 -19 7 -16 15 3 8 8 10 12 6 3 -4 10 -11
16 -15z m2865 -148 c0 -5 -5 -10 -11 -10 -5 0 -7 5 -4 10 3 6 8 10 11 10 2 0
4 -4 4 -10z m2585 -168 c-3 -3 -11 0 -18 7 -9 10 -8 11 6 5 10 -3 15 -9 12
-12z m-3742 -267 c-3 -9 -8 -14 -10 -11 -3 3 -2 9 2 15 9 16 15 13 8 -4z m21
-44 c-8 -8 -34 -10 -38 -2 -3 4 6 7 19 7 14 0 22 -2 19 -5z m-1914 -95 c0 -3
-4 -8 -10 -11 -5 -3 -10 -1 -10 4 0 6 5 11 10 11 6 0 10 -2 10 -4z m6311 -193
c13 -16 12 -17 -3 -4 -10 7 -18 15 -18 17 0 8 8 3 21 -13z m-6358 -13 c3 -11
3 -20 1 -20 -2 0 -8 9 -14 20 -6 11 -7 20 -2 20 6 0 12 -9 15 -20z m6460 -93
c-3 -5 -11 0 -19 10 -20 27 -17 39 5 17 10 -10 16 -23 14 -27z m-6473 -12
c-10 -12 -10 -15 1 -15 8 0 5 -6 -6 -14 -11 -8 -23 -12 -27 -10 -9 6 23 53 36
54 5 0 3 -7 -4 -15z m15 -45 c-3 -5 -12 -10 -18 -10 -7 0 -6 4 3 10 19 12 23
12 15 0z m6588 -155 c-3 -9 -8 -14 -10 -11 -3 3 -2 9 2 15 9 16 15 13 8 -4z
m-4703 -95 c0 -5 -5 -10 -11 -10 -5 0 -7 5 -4 10 3 6 8 10 11 10 2 0 4 -4 4
-10z m117 -156 c-3 -3 -12 -4 -19 -1 -8 3 -5 6 6 6 11 1 17 -2 13 -5z m4727
-289 c-4 -8 -11 -15 -16 -15 -6 0 -5 6 2 15 7 8 14 15 16 15 2 0 1 -7 -2 -15z
m-6791 -252 c-3 -7 -9 -13 -15 -13 -5 0 -6 5 -3 10 4 6 1 18 -7 27 -12 15 -11
15 9 3 11 -8 19 -20 16 -27z m6602 -363 c-3 -5 -11 -10 -16 -10 -6 0 -7 5 -4
10 3 6 11 10 16 10 6 0 7 -4 4 -10z m-6644 -77 c13 -16 12 -17 -3 -5 -9 8 -23
10 -29 6 -8 -4 -9 -3 -5 4 10 17 21 15 37 -5z m6362 -158 c-3 -9 -8 -14 -10
-11 -3 3 -2 9 2 15 9 16 15 13 8 -4z m-435 -270 c-3 -3 -9 2 -12 12 -6 14 -5
15 5 6 7 -7 10 -15 7 -18z m-79 -39 c10 -12 9 -14 -6 -11 -10 2 -22 4 -28 4
-5 1 -3 6 5 11 19 12 15 12 29 -4z m-5896 -49 c7 3 4 -3 -6 -14 -11 -12 -14
-24 -9 -27 6 -3 12 0 15 6 3 7 5 3 4 -8 -1 -13 -7 -21 -16 -19 -16 2 -24 32
-11 40 5 3 8 11 6 18 -1 7 -1 9 1 4 3 -4 10 -4 16 0z m5237 -187 c6 -11 8 -20
6 -20 -3 0 -10 9 -16 20 -6 11 -8 20 -6 20 3 0 10 -9 16 -20z m-5180 2 c0 -5
-7 -9 -15 -9 -8 0 -15 4 -15 9 0 4 7 8 15 8 8 0 15 -4 15 -8z m5042 -36 c3 2
8 -2 11 -10 8 -21 -23 -13 -36 10 -9 16 -8 17 5 7 8 -7 17 -10 20 -7z m-5002
-5 c0 -5 -9 -7 -20 -4 -11 3 -20 7 -20 9 0 2 9 4 20 4 11 0 20 -4 20 -9z
m4961 -23 c-10 -11 -11 -9 -5 6 6 15 4 17 -6 11 -9 -6 -11 -4 -5 4 5 9 10 10
18 2 8 -8 7 -14 -2 -23z m-421 -74 c0 -8 -19 -13 -24 -6 -3 5 1 9 9 9 8 0 15
-2 15 -3z m-2764 -39 c-1 -8 -8 -21 -16 -28 -10 -10 -11 -9 -4 3 5 8 9 18 10
23 3 14 4 17 8 17 2 0 3 -7 2 -15z m-1434 -19 c7 4 8 2 4 -5 -10 -15 -26 -4
-25 17 1 15 2 15 6 -1 2 -9 9 -14 15 -11z m118 14 c0 -5 -5 -10 -11 -10 -5 0
-7 5 -4 10 3 6 8 10 11 10 2 0 4 -4 4 -10z m140 0 c0 -5 -5 -10 -11 -10 -5 0
-7 5 -4 10 3 6 8 10 11 10 2 0 4 -4 4 -10z m45 -12 l-6 -23 20 24 c12 13 21
18 21 12 0 -6 5 -11 11 -11 5 0 8 4 5 8 -2 4 4 8 14 8 11 0 17 -2 15 -5 -3 -2
1 -11 7 -20 10 -13 10 -14 -2 -3 -16 14 -34 16 -26 4 3 -5 -5 -8 -17 -7 -12 1
-27 -2 -34 -7 -7 -6 -14 -5 -18 2 -5 8 -11 8 -21 -1 -9 -7 -14 -8 -14 -1 0 6
9 14 20 17 11 3 20 11 20 16 0 5 3 9 6 9 3 0 3 -10 -1 -22z m1035 14 c0 -13
-12 -22 -22 -16 -10 6 -1 24 13 24 5 0 9 -4 9 -8z m43 -4 c4 -10 8 -9 16 2 7
9 11 10 11 3 0 -18 -19 -26 -34 -14 -7 6 -17 7 -21 3 -5 -4 -5 -1 -1 6 4 6 11
12 16 12 4 0 11 -6 13 -12z m2534 -7 c1 -11 -5 -22 -13 -25 -10 -4 -13 -2 -7
7 4 6 8 15 9 20 5 24 9 23 11 -2z m63 8 c0 8 3 11 6 8 11 -11 -15 -35 -34 -33
-9 2 -15 7 -12 12 3 5 8 8 13 7 4 -2 7 3 7 10 0 8 4 7 10 -3 8 -12 10 -12 10
-1z m40 7 c0 -3 -4 -8 -10 -11 -5 -3 -10 -1 -10 4 0 6 5 11 10 11 6 0 10 -2
10 -4z m-3790 -10 c0 -2 -7 -7 -16 -10 -8 -3 -12 -2 -9 4 6 10 25 14 25 6z
m3364 -66 c-6 -6 -15 -5 -24 1 -13 9 -12 10 3 5 9 -3 17 0 17 6 0 6 3 8 7 5 4
-4 2 -12 -3 -17z m-1094 -32 c0 -4 -4 -8 -9 -8 -6 0 -12 4 -15 8 -3 5 1 9 9 9
8 0 15 -4 15 -9z m120 8 c0 -3 -4 -8 -10 -11 -5 -3 -10 -1 -10 4 0 6 5 11 10
11 6 0 10 -2 10 -4z m40 -6 c0 -5 -2 -10 -4 -10 -3 0 -8 5 -11 10 -3 6 -1 10
4 10 6 0 11 -4 11 -10z m23 -10 c-3 -12 -8 -19 -11 -16 -5 6 5 36 12 36 2 0 2
-9 -1 -20z m57 16 c0 -3 -4 -8 -10 -11 -5 -3 -10 -1 -10 4 0 6 5 11 10 11 6 0
10 -2 10 -4z m100 -6 c0 -5 -2 -10 -4 -10 -3 0 -8 5 -11 10 -3 6 -1 10 4 10 6
0 11 -4 11 -10z m-280 -14 c0 -3 -4 -8 -10 -11 -5 -3 -10 -1 -10 4 0 6 5 11
10 11 6 0 10 -2 10 -4z"/>
<path d="M3635 8780 c3 -5 8 -10 11 -10 2 0 4 5 4 10 0 6 -5 10 -11 10 -5 0
-7 -4 -4 -10z"/>
<path d="M4821 8514 c0 -11 3 -14 6 -6 3 7 2 16 -1 19 -3 4 -6 -2 -5 -13z"/>
<path d="M4930 8489 c0 -5 -4 -8 -9 -4 -5 3 -13 0 -17 -7 -4 -7 -4 -10 1 -6 4
4 13 4 19 -2 8 -6 12 -3 13 11 1 10 0 19 -3 19 -2 0 -4 -5 -4 -11z"/>
<path d="M5110 8400 c0 -15 38 -32 45 -20 4 6 3 10 -2 9 -20 -3 -34 2 -28 11
3 6 1 10 -4 10 -6 0 -11 -4 -11 -10z"/>
<path d="M3070 8080 c0 -5 5 -10 11 -10 5 0 7 5 4 10 -3 6 -8 10 -11 10 -2 0
-4 -4 -4 -10z"/>
<path d="M3047 8059 c7 -7 15 -10 18 -7 3 3 -2 9 -12 12 -14 6 -15 5 -6 -5z"/>
<path d="M5260 8045 c0 -7 5 -17 12 -21 6 -4 8 -3 4 4 -3 5 -1 12 6 14 8 3 6
7 -5 11 -11 4 -17 1 -17 -8z"/>
<path d="M5190 7803 c0 -8 51 -35 56 -30 2 2 -10 11 -26 21 -17 9 -30 14 -30
9z"/>
<path d="M2790 7104 c-14 -8 -17 -13 -7 -10 9 3 17 1 17 -4 0 -6 4 -10 8 -10
4 0 8 9 8 20 0 11 0 20 -1 20 0 -1 -11 -8 -25 -16z"/>
<path d="M5065 7090 c-8 -13 9 -20 24 -11 10 6 9 10 -3 14 -8 3 -18 2 -21 -3z"/>
<path d="M2745 6900 c-3 -6 1 -7 9 -4 18 7 21 14 7 14 -6 0 -13 -4 -16 -10z"/>
<path d="M2710 6699 c0 -5 5 -7 10 -4 6 3 10 8 10 11 0 2 -4 4 -10 4 -5 0 -10
-5 -10 -11z"/>
<path d="M4503 6543 c-7 -2 -13 -9 -13 -15 0 -7 5 -7 13 1 8 6 17 8 20 4 4 -3
7 -1 7 5 0 13 -7 14 -27 5z"/>
<path d="M4075 6360 c3 -5 8 -10 11 -10 2 0 4 5 4 10 0 6 -5 10 -11 10 -5 0
-7 -4 -4 -10z"/>
<path d="M2567 6089 c-9 -5 -22 -7 -29 -3 -7 4 -8 3 -4 -4 9 -16 18 -15 42 3
22 17 17 19 -9 4z"/>
<path d="M3911 5623 c1 -5 0 -10 -1 -13 -9 -23 -6 -40 6 -40 9 0 13 4 9 9 -3
5 -1 12 4 16 12 7 3 35 -10 35 -5 0 -8 -3 -8 -7z"/>
<path d="M2415 5600 c3 -5 8 -10 11 -10 2 0 4 5 4 10 0 6 -5 10 -11 10 -5 0
-7 -4 -4 -10z"/>
<path d="M3915 5371 c-3 -5 -2 -12 3 -15 5 -3 9 1 9 9 0 17 -3 19 -12 6z"/>
<path d="M2265 5230 c3 -6 1 -10 -6 -10 -7 0 -10 -3 -6 -6 3 -3 13 -2 22 4 16
8 16 9 1 15 -10 4 -15 3 -11 -3z"/>
<path d="M3900 5236 c0 -2 7 -7 16 -10 8 -3 12 -2 9 4 -6 10 -25 14 -25 6z"/>
<path d="M3915 5200 c-3 -5 -1 -10 4 -10 6 0 11 5 11 10 0 6 -2 10 -4 10 -3 0
-8 -4 -11 -10z"/>
<path d="M3910 5071 c0 -6 4 -13 10 -16 6 -3 7 1 4 9 -7 18 -14 21 -14 7z"/>
<path d="M2191 4996 c-9 -11 -9 -16 1 -22 7 -4 10 -4 6 1 -4 4 -3 14 3 22 6 7
9 13 6 13 -2 0 -10 -6 -16 -14z"/>
<path d="M5818 4983 c6 -2 10 -8 8 -12 -3 -4 1 -8 9 -8 11 0 12 4 4 14 -6 7
-17 13 -23 12 -7 0 -6 -2 2 -6z"/>
<path d="M6515 4980 c3 -5 8 -10 11 -10 2 0 4 5 4 10 0 6 -5 10 -11 10 -5 0
-7 -4 -4 -10z"/>
<path d="M5515 4930 c-4 -6 -5 -10 -3 -11 25 -6 38 -6 38 1 0 12 -29 20 -35
10z"/>
<path d="M6771 4917 c-13 -21 -12 -21 5 -5 10 10 16 20 13 22 -3 3 -11 -5 -18
-17z"/>
<path d="M3913 4905 c0 -8 4 -12 9 -9 5 3 6 10 3 15 -9 13 -12 11 -12 -6z"/>
<path d="M6927 4881 c-4 -17 -3 -21 5 -13 5 5 8 16 6 23 -3 8 -7 3 -11 -10z"/>
<path d="M5250 4840 c-6 -11 -8 -20 -6 -20 3 0 10 9 16 20 6 11 8 20 6 20 -3
0 -10 -9 -16 -20z"/>
<path d="M7077 4833 c3 -7 6 -13 8 -13 2 0 5 6 8 13 3 8 -1 14 -8 14 -7 0 -11
-6 -8 -14z"/>
<path d="M4870 4589 c0 -5 -5 -7 -12 -3 -7 4 -8 3 -4 -5 6 -9 11 -9 22 0 17
14 18 19 4 19 -5 0 -10 -5 -10 -11z"/>
<path d="M4826 4553 c-6 -14 -5 -15 5 -6 7 7 10 15 7 18 -3 3 -9 -2 -12 -12z"/>
<path d="M7589 4557 c6 -6 18 -12 27 -13 12 -2 14 0 5 9 -6 6 -18 12 -27 13
-12 2 -14 0 -5 -9z"/>
<path d="M1936 4217 c3 -10 9 -15 12 -12 3 3 0 11 -7 18 -10 9 -11 8 -5 -6z"/>
<path d="M1936 4155 c-11 -8 -15 -15 -9 -15 7 0 15 5 18 10 4 6 11 7 17 4 7
-4 8 -2 4 4 -9 14 -7 15 -30 -3z"/>
<path d="M3860 4080 c0 -5 7 -10 16 -10 8 0 12 5 9 10 -3 6 -10 10 -16 10 -5
0 -9 -4 -9 -10z"/>
<path d="M3873 4045 c0 -8 4 -15 9 -15 4 0 8 7 8 15 0 8 -4 15 -8 15 -5 0 -9
-7 -9 -15z"/>
<path d="M4276 4022 c-3 -5 1 -9 9 -9 8 0 12 4 9 9 -3 4 -7 8 -9 8 -2 0 -6 -4
-9 -8z"/>
<path d="M3845 3851 c-6 -11 13 -26 22 -17 4 3 1 6 -6 6 -7 0 -9 5 -6 10 3 6
4 10 1 10 -3 0 -7 -4 -11 -9z"/>
<path d="M3873 3805 c0 -8 4 -12 9 -9 5 3 6 10 3 15 -9 13 -12 11 -12 -6z"/>
<path d="M1830 3416 c0 -2 8 -10 18 -17 15 -13 16 -12 3 4 -13 16 -21 21 -21
13z"/>
<path d="M3826 3403 c-6 -14 -5 -15 5 -6 7 7 10 15 7 18 -3 3 -9 -2 -12 -12z"/>
<path d="M3800 3385 c0 -5 5 -17 10 -25 5 -8 10 -10 10 -5 0 6 -5 17 -10 25
-5 8 -10 11 -10 5z"/>
<path d="M1850 3280 c-9 -6 -10 -10 -3 -10 6 0 15 5 18 10 8 12 4 12 -15 0z"/>
<path d="M8665 3220 c-3 -6 1 -7 9 -4 18 7 21 14 7 14 -6 0 -13 -4 -16 -10z"/>
<path d="M1833 3207 c0 -7 9 -14 20 -14 11 -1 18 -1 16 0 -2 2 -11 8 -20 15
-12 9 -16 9 -16 -1z"/>
<path d="M3795 3200 c3 -5 8 -10 11 -10 2 0 4 5 4 10 0 6 -5 10 -11 10 -5 0
-7 -4 -4 -10z"/>
<path d="M8655 3191 c-3 -5 -1 -12 4 -16 6 -3 8 -21 7 -40 -3 -24 2 -39 15
-51 11 -9 19 -12 19 -7 0 6 -7 13 -15 17 -16 6 -16 26 0 38 6 5 5 8 -4 8 -10
0 -9 6 5 28 15 23 15 25 1 13 -15 -12 -21 -9 -18 12 1 10 -7 9 -14 -2z"/>
<path d="M1835 3140 c-3 -5 -1 -10 4 -10 6 0 11 5 11 10 0 6 -2 10 -4 10 -3 0
-8 -4 -11 -10z"/>
<path d="M8669 3008 c-7 -18 -3 -58 5 -58 6 0 12 14 12 30 1 17 -2 30 -7 30
-5 0 -9 -1 -10 -2z"/>
<path d="M1840 2991 c13 -9 12 -11 -5 -12 -15 0 -16 -2 -5 -7 21 -10 26 -36 5
-28 -12 4 -13 2 -7 -12 5 -9 8 -28 6 -40 -3 -16 0 -22 8 -20 7 3 13 18 13 34
0 16 3 34 7 40 4 6 4 14 0 18 -4 4 -7 13 -7 19 0 5 -7 12 -15 14 -13 4 -13 3
0 -6z"/>
<path d="M8653 2885 c0 -8 4 -15 9 -15 4 0 8 7 8 15 0 8 -4 15 -8 15 -5 0 -9
-7 -9 -15z"/>
<path d="M8521 2517 c-8 -10 -7 -14 2 -14 8 0 14 6 14 14 0 7 -1 13 -2 13 -2
0 -8 -6 -14 -13z"/>
<path d="M1785 2341 c-3 -5 -2 -12 3 -15 5 -3 9 1 9 9 0 17 -3 19 -12 6z"/>
<path d="M1773 2304 c0 -16 13 -19 21 -5 3 5 0 11 -7 14 -8 3 -14 -1 -14 -9z"/>
<path d="M8070 2109 c0 -5 5 -7 10 -4 6 3 10 8 10 11 0 2 -4 4 -10 4 -5 0 -10
-5 -10 -11z"/>
<path d="M8046 2085 c4 -8 11 -15 16 -15 6 0 5 6 -2 15 -7 8 -14 15 -16 15 -2
0 -1 -7 2 -15z"/>
<path d="M1733 2065 c0 -8 5 -15 11 -15 6 0 4 -5 -4 -10 -8 -5 -10 -10 -5 -10
25 0 32 15 15 32 -14 15 -17 15 -17 3z"/>
<path d="M7880 2006 c0 -2 8 -10 18 -17 15 -13 16 -12 3 4 -13 16 -21 21 -21
13z"/>
<path d="M7787 1949 c7 -7 15 -10 18 -7 3 3 -2 9 -12 12 -14 6 -15 5 -6 -5z"/>
<path d="M7547 1829 c7 -7 15 -10 18 -7 3 3 -2 9 -12 12 -14 6 -15 5 -6 -5z"/>
<path d="M7456 1782 c-3 -5 1 -9 9 -9 8 0 12 4 9 9 -3 4 -7 8 -9 8 -2 0 -6 -4
-9 -8z"/>
<path d="M7306 1745 c3 -8 10 -13 14 -10 5 3 11 -1 13 -7 4 -10 6 -10 6 -1 1
7 -8 17 -19 23 -16 9 -18 8 -14 -5z"/>
<path d="M7190 1705 c5 -7 6 -16 2 -21 -4 -5 -3 -5 2 -1 15 12 15 34 0 34 -9
0 -11 -4 -4 -12z"/>
<path d="M6660 1561 c0 -6 -9 -8 -19 -6 -14 3 -18 -1 -14 -12 4 -11 8 -11 13
-3 6 9 9 9 13 -1 4 -11 6 -11 6 -1 1 7 5 10 11 7 6 -3 7 1 4 9 -7 18 -14 21
-14 7z"/>
<path d="M6689 1557 c6 -8 7 -18 3 -22 -4 -5 -1 -5 6 -1 10 6 10 11 1 22 -6 8
-14 14 -16 14 -3 0 0 -6 6 -13z"/>
<path d="M1975 1519 c-4 -6 -3 -15 3 -21 6 -6 11 -4 15 6 7 18 -9 31 -18 15z"/>
<path d="M6458 1513 c6 -2 9 -10 6 -15 -4 -7 -2 -8 5 -4 13 9 5 26 -12 25 -9
0 -8 -2 1 -6z"/>
<path d="M3410 1480 c-9 -6 -10 -10 -3 -10 6 0 15 5 18 10 8 12 4 12 -15 0z"/>
<path d="M2784 1465 c-18 -15 -18 -15 0 -8 15 5 17 3 11 -8 -5 -8 -4 -11 0 -6
8 7 17 37 11 37 -1 0 -11 -7 -22 -15z"/>
<path d="M3433 1465 c-4 -5 -3 -7 2 -3 4 4 17 3 28 -3 14 -8 18 -8 13 0 -4 6
-3 11 3 11 5 0 12 -5 14 -10 3 -6 4 -5 3 2 -3 16 -55 18 -63 3z"/>
<path d="M2710 1461 c0 -6 4 -13 10 -16 6 -3 7 1 4 9 -7 18 -14 21 -14 7z"/>
<path d="M2975 1460 c-3 -5 -1 -10 4 -10 6 0 11 5 11 10 0 6 -2 10 -4 10 -3 0
-8 -4 -11 -10z"/>
<path d="M2685 1440 c3 -5 8 -10 11 -10 2 0 4 5 4 10 0 6 -5 10 -11 10 -5 0
-7 -4 -4 -10z"/>
<path d="M3856 1422 c-3 -5 1 -9 9 -9 8 0 12 4 9 9 -3 4 -7 8 -9 8 -2 0 -6 -4
-9 -8z"/>
<path d="M3890 1419 c0 -5 5 -7 10 -4 6 3 10 8 10 11 0 2 -4 4 -10 4 -5 0 -10
-5 -10 -11z"/>
<path d="M4056 1393 c-6 -14 -5 -15 5 -6 7 7 10 15 7 18 -3 3 -9 -2 -12 -12z"/>
<path d="M5197 1361 c-8 -10 -8 -13 0 -8 6 4 13 3 15 -3 2 -6 8 -2 15 8 9 15
8 19 -3 19 -8 0 -20 -7 -27 -16z"/>
<path d="M5390 1376 c0 -2 7 -7 16 -10 8 -3 12 -2 9 4 -6 10 -25 14 -25 6z"/>
<path d="M4653 1355 c0 -8 4 -15 9 -15 4 0 8 7 8 15 0 8 -4 15 -8 15 -5 0 -9
-7 -9 -15z"/>
<path d="M4415 1340 c-3 -6 1 -7 9 -4 18 7 21 14 7 14 -6 0 -13 -4 -16 -10z"/>
</g>
</svg>
